<?xml version="1.0" encoding="UTF-8"?>
<!DOCTYPE svg PUBLIC "-//W3C//DTD SVG 1.1//EN" "http://www.w3.org/Graphics/SVG/1.1/DTD/svg11.dtd">
<!-- Creator: CorelDRAW -->
<svg xmlns="http://www.w3.org/2000/svg" xml:space="preserve" width="6.08298in" height="7.81775in" style="shape-rendering:geometricPrecision; text-rendering:geometricPrecision; image-rendering:optimizeQuality; fill-rule:evenodd; clip-rule:evenodd"
viewBox="0 0 6.08298 7.81775"
 xmlns:xlink="http://www.w3.org/1999/xlink">
 <defs>
  <style type="text/css">
  </style>
 </defs>
 <g id="Layer_x0020_1">
  <metadata id="CorelCorpID_0Corel-Layer"/>
  <path class="fil0" d="M3.21107 4.2371c-0.0272047,0.0128386 -0.0544055,0.0256772 -0.0816064,0.0385158 0.016189,-0.021248 0.032378,-0.0424961 0.048567,-0.0637441 0.0110118,0.00840945 0.0220236,0.0168189 0.0330394,0.0252284zm0.48713 -2.6364c-0.0172795,-0.00313386 -0.0413898,-0.025248 -0.0598701,-0.033252 5.90552e-005,-0.000129921 0.00011811,-0.000259843 0.000181102,-0.000389764 -0.00635827,-0.00118504 -0.0141339,0.00111417 -0.0244213,0.0125512 0.0118032,0.0108071 0.0448937,0.0313622 0.0608977,0.0313622 0.0222047,0.00525985 0.0467599,0.00633465 0.073004,0.0043937 0.00396851,-0.016752 0.00793701,-0.0335079 0.0119055,-0.0502638 -0.0167284,0.0178307 -0.0337599,0.0406575 -0.0616969,0.0355984zm-0.0269016 -0.0707048c0.0175788,0.00950394 0.0372638,0.0212244 0.0524252,0.00227559 -0.0153386,-0.0220945 -0.032311,-0.0197795 -0.0524252,-0.00227559zm-0.686666 2.76297c0.0256103,-0.00214173 0.0512205,-0.00428347 0.0768308,-0.00642126 -0.0172008,0.0131536 -0.0344016,0.0263071 -0.0516024,0.0394607 -0.00840945,-0.0110158 -0.0168189,-0.0220276 -0.0252284,-0.0330394zm-1.58437 2.39646c0.0848229,0.00125591 0.178335,-0.0233937 0.014811,0.0388977 -0.00493701,-0.0129685 -0.00987402,-0.0259331 -0.014811,-0.0388977zm-0.0486339 -0.0879449c0.00466536,0.0130197 0.00933071,0.0260394 0.014,0.039063 -0.192929,0.0694449 -0.129134,0.0599252 -0.014,-0.039063zm-0.149665 -0.0663622c0.00227559,0.0136693 0.00455512,0.0273425 0.00683465,0.0410158 -0.169118,0.0286103 -0.164036,-0.0144134 -0.00683465,-0.0410158zm-0.203752 -0.0201063c0.0612599,-0.0147835 0.111571,-0.0572835 0.128276,0.0117559 -0.0612441,0.0147835 -0.0237244,-0.018315 -0.128276,-0.0117559zm-0.0750158 -0.0559922c0.0285433,0.00706693 0.0409016,0.0102284 0.0903229,0.00522835 -0.0245197,0.0108976 -0.0490394,0.0217953 -0.0735591,0.0326929 -0.00559055,-0.0126417 -0.0111772,-0.0252835 -0.0167638,-0.0379213zm-0.12874 -0.084004c0.131662,0.122252 0.263319,0.244508 0.394977,0.366764 0.181351,0.00134252 0.362697,0.00268504 0.544044,0.0040315 -5.51181e-005,0.0138347 -0.000110236,0.0276693 -0.000165354,0.041504 -0.184075,-0.00136614 -0.36815,-0.00272835 -0.552225,-0.00409055 -0.00469292,-0.00184646 -0.00938583,-0.00369292 -0.0140787,-0.00553544 -0.0680591,-0.0632008 -0.154957,-0.0906615 -0.372551,-0.402673zm0.871678 -1.44942c0.0606063,0.00673622 0.121213,0.0134685 0.181823,0.0202008 0.0637796,-0.0530158 0.227547,-0.0674567 0.325729,0.000602363 -0.251362,-0.0640079 -0.294449,0.042563 -0.328036,0.0409882 -0.0613583,-0.00681497 -0.122717,-0.0136339 -0.184075,-0.0204528 0.00151969,-0.0137795 0.00303937,-0.0275591 0.00455906,-0.0413386zm-0.0344331 0.118543c0.144795,0.00412992 0.198331,-0.0249016 0.224252,0.156 -0.0824331,-0.108465 -0.0935473,-0.110736 -0.225394,-0.114496 0.00038189,-0.0138347 0.00076378,-0.0276693 0.00114173,-0.041504zm0.608898 0.0617678c0.0948859,0.0450473 0.211965,0.114098 0.437737,0.130677 -0.160906,0.00682284 -0.306795,-0.0313583 -0.44587,-0.0899922 0.0027126,-0.013563 0.0054252,-0.027126 0.00813386,-0.0406851zm-0.30202 -0.6243c-0.0560118,0.0577993 -0.0573898,0.13091 0.00503937,0.188705 -0.0837796,0.00457481 -0.0969804,-0.1345 -0.0465433,-0.186429 0.0138347,-0.000755906 0.0276693,-0.00151575 0.041504,-0.00227559zm0.0632796 -0.107638c-0.016748,0.0938977 0.0217874,0.145268 0.115595,0.154126 -0.0110709,0.00829922 -0.0221378,0.0165984 -0.0332047,0.0248977 -0.0720276,-0.0104331 -0.120126,-0.0501181 -0.115595,-0.154126 0.0110669,-0.00829922 0.0221339,-0.0165984 0.0332047,-0.0248977zm0.0647441 -0.166693c0.105701,0.048252 0.17313,0.10926 0.202288,0.183024 -0.00927953,0.0102559 -0.0185591,0.0205118 -0.0278347,0.0307638 -0.029689,-0.103469 -0.104559,-0.156106 -0.202288,-0.183024 0.0092756,-0.010252 0.0185551,-0.0205079 0.0278347,-0.0307638zm1.71846 -1.42834c-0.0654016,0.106583 -0.436075,0.757012 -0.747906,1.15737 0.17339,-0.282559 0.539036,-0.896457 0.712426,-1.17902 0.0118268,0.00721654 0.0236536,0.0144331 0.0354803,0.0216457zm-0.802178 1.09714c0.29615,-0.428059 0.367319,-0.6925 0.495756,-0.981485 -0.0168228,0.133906 -0.153634,0.627473 -0.495756,0.981485zm0.755599 1.35961c0.0128032,0.00537008 0.0256063,0.0107402 0.0384095,0.0161102 -0.0644489,0.15365 -0.203697,0.23011 -0.363055,0.253351 0.227461,-0.101539 0.260748,-0.117114 0.324646,-0.269461zm-1.85236 0.0077126c0.10189,0.0353977 0.203236,0.0789213 0.304571,0.122441 0.143236,0.0615079 0.498296,0.211662 0.899855,0.196051 -0.172118,0.0599922 -0.605571,-0.0243662 -0.916296,-0.157807 -0.101256,-0.0434843 -0.20252,-0.0869764 -0.301799,-0.121465 0.00455512,-0.0130748 0.00911024,-0.0261496 0.0136693,-0.0392205zm2.4084 -1.86637c0.213303,0.0985079 0.214142,-0.0329646 0.290721,-0.0777481 0.00699607,0.011937 0.0139921,0.0238701 0.0209921,0.0358032 -0.0464882,0.0271851 -0.150665,0.196618 -0.311713,0.0419449zm0.0220473 0.0579725c0.0526811,0.138398 0.0302008,0.0647205 0.23011,0.153382 -0.11311,-0.00518504 -0.228366,-0.0317717 -0.269008,-0.138571 0.0129646,-0.00493701 0.0259292,-0.00987402 0.0388977,-0.014811zm-0.555815 2.03662c0.051374,-0.0642205 0.102748,-0.128441 0.154126,-0.192658 0.0107953,0.00862599 0.0215906,0.017252 0.0323858,0.0258819 -0.0449567,0.0561929 -0.0314213,0.0347166 -0.186512,0.166776zm-0.629906 -0.0724725c0.26061,-0.149965 0.578327,-0.269307 0.70404,-0.56804 0.012748,0.00537008 0.0254961,0.0107402 0.0382441,0.0161102 -0.0771457,0.183323 -0.379599,0.441469 -0.742284,0.551929zm1.01339 -2.24238c-0.018378,0.111595 -0.0522599,0.543992 -0.175874,0.812119 0.0309882,-0.188154 0.0619764,-0.376307 0.0929686,-0.564465 -0.0501929,0.106748 -0.098067,0.218949 -0.145929,0.331138 -0.0950197,0.222701 -0.254788,0.418339 -0.305504,0.630559 -0.0198268,0.0829607 -0.0924725,0.172547 -0.221725,0.262004 -0.0984292,0.0681221 -0.186945,0.141264 -0.299984,0.173429 -0.00320473,-0.0134567 -0.00640552,-0.0269095 -0.00960631,-0.0403622 0.101697,-0.0244331 0.185539,-0.0804252 0.270024,-0.142339 0.115921,-0.0849489 0.203162,-0.193929 0.249118,-0.31289 0.0732363,-0.189579 0.191567,-0.380733 0.279433,-0.586678 0.0323504,-0.0758308 0.229461,-0.568622 0.267079,-0.562516zm-2.0968 1.79692c0.100606,0.0179882 0.169823,0.00823623 0.273634,0.0126654 0.103811,0.0044252 0.242225,0.0230473 0.350315,0.0159803 0.0977363,-0.0277559 0.432185,-0.178539 0.619067,-0.196807 -0.22565,0.0575591 -0.414969,0.19391 -0.613863,0.23798 -0.117835,0.00523622 -0.240744,-0.00694882 -0.360571,-0.0134724 -0.0932008,-0.00507087 -0.182925,-0.00188583 -0.27737,-0.0156614 0.00292914,-0.013563 0.00585827,-0.027126 0.00878741,-0.0406851zm0.915256 -0.254394c0.18228,-0.182795 0.452555,-0.760028 0.674772,-1.09178 -0.196449,0.379071 -0.340508,0.815426 -0.645315,1.12108 -0.0098189,-0.00976772 -0.0196378,-0.0195354 -0.0294567,-0.0292992zm1.01672 -2.10687c-0.0522835,0.138331 -0.355142,1.02639 -0.501272,1.20872 0.0522835,-0.138339 0.401555,-1.06074 0.501272,-1.20872zm-1.68654 2.09382c0.311059,-0.17624 0.602611,-0.321705 0.832512,-0.639008 -0.108598,0.291693 -0.708264,0.616367 -0.812008,0.675142 -0.00683465,-0.0120473 -0.0136693,-0.0240906 -0.020504,-0.0361339zm-0.310284 0.107264c0.25952,-0.190591 0.509552,-0.266043 0.727776,-0.554469 0.0110669,0.00835434 0.0221339,0.0167087 0.0332047,0.025063 -0.226693,0.299618 -0.47202,0.368768 -0.736406,0.562933 -0.00819292,-0.0111772 -0.0163858,-0.0223543 -0.0245748,-0.0335276zm3.065 -0.255713c0.0364725,0.0911457 0.0692323,0.211618 0.110705,0.326709 0.041189,0.114311 0.117087,0.274154 0.166524,0.429642 -0.0669646,0.0212244 -0.319524,-0.642685 -0.359961,-0.743749 0.0275748,-0.00420079 0.0551536,-0.00840158 0.0827323,-0.0126024zm0.355138 3.06679c-0.00461024,0.0337638 0.0076063,0.0590827 0.0350315,0.0767402 0.0717874,0.0462244 0.195567,0.0550079 0.263414,0.0076063 0.0265473,-0.0185512 0.0807402,-0.098819 0.0474922,-0.0825867 -0.0395748,0.0193228 -0.0431969,-0.0190788 -0.00730709,-0.0744056 0.0134528,-0.00336614 0.0289488,0.0137008 0.0424055,0.0103386 0.0550591,0.17989 -0.110075,0.250815 -0.256917,0.228217 -0.10665,0.0101693 -0.203524,-0.0765906 -0.165291,-0.171445 0.0137244,0.00184252 0.0274488,0.00368898 0.0411733,0.00553544zm0.319984 -0.840969c0,0.0138898 0,0.0277795 0,0.0416693 -0.794666,0 -1.5989,0.0223228 -2.39356,0.0223228 0,-0.0837638 2.16633,-0.0639922 2.39356,-0.0639922zm-3.47314 0.0689134c-0.672059,0 -1.39929,0 -2.07135,0 0,-0.0434174 2.02435,-0.0330551 2.07135,0zm2.90867 -0.962442c0.0364095,0.00302756 0.0855512,0.00789371 0.0481181,0.0403071 -0.0571142,0.0494292 -0.166886,0.135335 -0.135189,0.179705 0.0680434,-0.0556733 0.136087,-0.111347 0.204134,-0.16702 0.00804725,-0.0181024 0.023248,-0.0345276 0.0241378,-0.0543111 0.00236221,-0.0526103 -0.131976,-0.0191732 -0.141201,0.0013189zm-0.0364292 -0.102221c0.0626182,0.0404095 0.133654,0.0411299 0.204721,0.0411299 0.139236,-0.0982875 0.125784,-0.105016 0.131595,-0.276469 -0.0344882,0.0366378 -0.0689764,0.0732756 -0.103461,0.109917 0.00534252,0.00364567 0.010685,0.00729134 0.0160276,0.010937 -0.0223228,0.0327362 -0.0446457,0.0654725 -0.0669685,0.0982127 -0.0699371,0.00570867 -0.119571,0.0111811 -0.181914,0.0162717zm-3.07203 -0.239666c-0.0178622,-0.00688583 -0.0356969,-0.0139055 -0.0535079,-0.0210276 0.00270473,0.0106496 0.00540945,0.0213032 0.00811812,0.0319567 -0.0586339,0.0149961 -0.117264,0.0299961 -0.175894,0.0449961 -0.00229921,-0.00904725 -0.00459843,-0.0180945 -0.00689371,-0.0271417 -0.00383071,0.0117835 -0.00780315,0.0309292 -0.0137953,0.0411181 0.0806575,-0.0233032 0.161315,-0.0466024 0.241973,-0.0699016zm-1.51642 2.20272c0.0531496,-0.06563 0.058437,-0.131256 0.056878,-0.196878 -0.05263,0.0466378 -0.132606,0.0825001 -0.354725,0.0623662 -0.00615748,0.0748544 0.0159882,0.11952 0.0607441,0.140036 0.061189,0.00102362 0.151496,-0.0239449 0.237103,-0.00552363zm-0.31354 -0.268358c-0.0582717,0.166067 0.307713,0.0588465 0.374622,0.00849213 0.00460237,-0.00490945 0.00920473,-0.0098189 0.013937,-0.014685 -0.12952,0.00206299 -0.25904,0.00412599 -0.388559,0.00619292zm0.397028 -1.15744c-0.367614,-0.307977 -0.277858,-0.574674 -0.196421,-0.78939 0.0378544,-0.13241 0.0818032,-0.253004 0.185347,-0.327071 0.0753071,-0.0538701 0.162847,-0.103417 0.251351,-0.154913 0.103724,-0.0603504 0.23491,-0.0847914 0.360453,-0.127579 0.00444882,0.013126 0.0292914,0.00586221 0.0337402,0.0189921 -0.0284685,0.00970473 -0.0770827,0.0398347 -0.104933,0.0496772 -0.0940119,0.0332166 -0.19928,0.0448307 -0.266059,0.106169 -0.0791024,0.0726536 -0.180386,0.125705 -0.275059,0.182394 -0.0847363,0.0507402 -0.113756,0.155122 -0.144799,0.263725 -0.052067,0.182024 -0.119803,0.418855 0.21965,0.75178 0.033811,0.0331299 -0.0461614,0.112429 -0.161595,0.172976 -0.172221,0.0903347 -0.290969,0.258122 -0.436453,0.387181 -0.230536,0.0274961 0.4535,-0.479158 0.53478,-0.533941zm0.794489 -1.20623c0.0640512,0.0171654 0.13335,0.0158347 0.160307,0.120563 -0.0398937,-0.0550866 -0.105315,-0.0740119 -0.177882,-0.0828071 0.00585827,-0.0125866 0.0117165,-0.0251732 0.0175748,-0.0377559zm0.225646 0.0739804c0.142925,0.0316299 0.166394,0.114453 0.156413,0.211618 -0.0111221,0.0082441 -0.0222402,0.0164921 -0.0333622,0.0247402 0.00946457,-0.145831 -0.0673111,-0.186256 -0.156413,-0.211618 0.0111221,-0.00824804 0.0222441,-0.0164961 0.0333622,-0.0247402zm-0.106051 0.431437c0.035567,-0.0275906 0.0616378,-0.0549134 0.0781812,-0.0819449 0.00396851,-0.0535709 0.00793701,-0.107138 0.0119055,-0.160705 0.00610237,-0.00767323 0.0126102,0.000976379 0.0195276,0.00146457 0.00691733,0.000488189 0.0142441,-0.00718504 0.0219764,0.00146457 -0.00192126,0.0259646 -0.00887796,0.16048 -0.0150354,0.174567 -0.0190473,0.0329843 -0.0494449,0.0656654 -0.0911615,0.0980276 -0.0234213,0.00127953 -0.0318819,-0.00968111 -0.0253937,-0.032874zm-0.0870945 -0.0388937c0.0312992,-0.0281693 0.0578032,-0.0562599 0.079504,-0.0842638 0.00283071,-0.0381811 0.00566142,-0.0763662 0.00848426,-0.114543 0.00110236,-0.014937 -0.0222756,-0.0470197 -0.0211693,-0.0619607 0.0224055,0.0303622 0.0521575,0.0190945 0.0659922,0.0200709 -0.00408662,0.0552048 -0.00817717,0.11041 -0.0122677,0.165614 -0.00534252,0.0243229 -0.0678544,0.0836378 -0.0927087,0.106004 -0.0092756,-0.0103071 -0.0185551,-0.0206142 -0.0278347,-0.0309213zm-0.102075 -0.0967835c0.0399803,-0.0272559 0.0656733,-0.0537953 0.0770591,-0.0796182 0.0219488,-0.0550079 -0.0305158,-0.0501063 -0.0335945,-0.0737717 -0.00307874,-0.0236654 0.0297599,-0.0305945 0.025189,-0.0517126 0.0109803,-0.013315 0.0239961,-0.0164213 0.041504,0.00292914 0.00543307,0.0440315 0.0247638,0.102079 0.00672048,0.135067 -0.0138228,0.0345827 -0.0449803,0.0684056 -0.0934449,0.101445 -0.0390827,0.000791339 -0.0468898,-0.0106575 -0.0234331,-0.0343386zm0.397378 0.204996c-0.000818898,0.000874016 -0.00164173,0.00175197 -0.00246457,0.00262992 0.00863386,0.00593307 0.0172638,0.0118661 0.0258937,0.0178032 -0.00780709,-0.00681103 -0.0156181,-0.0136221 -0.0234291,-0.0204331zm-0.636122 -0.477382c0.0224764,-0.0217953 0.0449528,-0.0435906 0.0674292,-0.0653859 0.00965749,0.00992914 0.019315,0.0198583 0.0289685,0.0297874 -0.0224764,0.0217953 -0.0449528,0.0435906 -0.0674292,0.0653859 -0.00965355,-0.00992914 -0.019311,-0.0198583 -0.0289685,-0.0297874zm4.05252 0.112457c-0.109567,-0.0104213 -0.170055,0.050063 -0.181449,0.181449 0.0249449,0.00270866 0.0498898,0.00542126 0.0748347,0.00813386 -0.00146457,0.0137795 -0.00292914,0.0275591 -0.0043937,0.0413386 -0.05013,-0.00544882 -0.10026,-0.0108976 -0.15039,-0.0163465 -0.0495788,0.0445788 -0.00333465,0.0795749 0.0566063,0.113209 -0.0123701,0.00618111 -0.0247402,0.0123661 -0.0371103,0.0185512 -0.0513071,0.00405906 -0.175516,-0.16989 -0.052878,-0.177205 0.0235748,0.00256299 0.0471496,0.00512599 0.0707245,0.00768898 -0.00194882,-0.00194882 -0.0038937,-0.0038937 -0.00583859,-0.00583859 0.0231772,-0.164988 0.0899882,-0.231803 0.200437,-0.200437 0.0098189,0.0098189 0.0196378,0.0196378 0.0294567,0.0294567zm0.343185 0.757304c-0.0284646,-0.0403229 -0.128461,-0.150142 -0.156921,-0.190465 -0.0099252,0.0223268 -0.0198504,0.0446575 -0.0297717,0.0669882 0.0383859,0.0179921 0.148303,0.10548 0.186693,0.123476zm0.175421 -0.928375c-0.00922442,-0.0103071 -0.0184488,-0.0206142 -0.0276693,-0.0309213 0.0763544,-0.0681772 0.152713,-0.136354 0.229071,-0.204528 -0.0749922,0.121721 -0.144618,0.184744 -0.201402,0.235449zm-0.913587 0.863339c0.0763544,-0.0954489 0.152713,-0.190894 0.229071,-0.286339 0.0107953,0.00862599 0.0215906,0.017252 0.0323858,0.0258819 -0.0500985,0.0626221 -0.0943977,0.108252 -0.261457,0.260457zm-1.94414 -0.264166c-0.073689,0.0480394 -0.122024,0.157071 -0.159488,0.232776 0.025378,-0.206662 0.0923268,-0.238567 0.136866,-0.267603 0.00753937,0.0116063 0.0150787,0.0232166 0.0226221,0.0348268zm0.101327 0.00413386c-0.0284016,0.0567953 -0.0426929,0.0388937 -0.094378,0.0959843 0.0190866,-0.0381811 0.0381772,-0.0763583 0.0572678,-0.114536 0.0123701,0.00618111 0.0247402,0.0123661 0.0371103,0.0185512zm-1.83994 -0.427126c-0.0416457,0.0354292 -0.0540552,0.0825512 -0.0531772,0.134988 -0.0129095,-0.00504725 -0.0258189,-0.0100906 -0.0387323,-0.0151339 0.00461811,-0.0615355 0.035941,-0.105264 0.0919095,-0.119854zm0.837028 1.31965c0.0530827,-0.0542835 0.12811,-0.0956536 0.183902,-0.158606 -0.0414843,0.0666615 -0.0974607,0.129634 -0.154114,0.187575 -0.00992914,-0.00965749 -0.0198583,-0.019315 -0.0297874,-0.0289685zm0.136516 -0.0286142c0.0354488,-0.0177284 0.0709016,-0.0354528 0.106354,-0.0531772 -0.0645237,0.0408662 -0.0317166,0.0622402 -0.0878032,0.0902875 -0.00618504,-0.0123701 -0.0123701,-0.0247402 -0.0185512,-0.0371103zm0.778001 0.123362c0.00272441,-0.0354528 0.00545276,-0.0709056 0.00818111,-0.106354 0.0138347,0.0010315 0.0276693,0.00206299 0.041504,0.00309449 -0.00272835,0.0354488 -0.0054567,0.0709016 -0.00818111,0.106354 -0.0138347,-0.0010315 -0.0276693,-0.00206299 -0.041504,-0.00309449zm-2.2942 -1.22824c-0.00149606,0.0209921 -0.00509055,0.109039 -0.0104606,0.122591 -0.0749134,0.0952717 -0.0609804,0.192276 -0.00169685,0.310618 -0.0884174,-0.10587 -0.101756,-0.199154 -0.0372284,-0.325811 0.00262992,-0.0367756 0.00525591,-0.0735512 0.00788189,-0.110327 0.0138347,0.000976379 0.0276693,0.00195276 0.041504,0.00292914zm0.264709 0.7175c0.11402,0.0748662 0.271051,0.162949 0.394996,0.120358 -0.0202244,0.05513 -0.138378,0.0480866 -0.189878,0.0312992 -0.0713229,-0.023248 -0.147961,-0.0645 -0.227906,-0.116988 0.00759843,-0.0115591 0.0151929,-0.0231142 0.0227874,-0.0346693zm1.02112 0.375764c0.0778741,-0.0462559 0.127102,-0.0879567 0.193323,-0.153945 -0.0363071,0.0849449 -0.0958386,0.144421 -0.172165,0.189748 -0.00705512,-0.011937 -0.0141063,-0.0238701 -0.0211575,-0.0358032zm1.3011 -3.7528c-0.0111536,0.0833111 -0.0223071,0.166618 -0.0334607,0.249925 -0.0111102,-0.0872953 -0.00873229,-0.247669 -0.00139764,-0.302484 0.0651457,-0.0160669 0.0592048,0.038189 0.119866,0.0609685 2.36221e-005,0 5.11811e-005,0 7.87402e-005,0 0.0454292,0.017063 0.090819,0.00270079 0.135673,-0.00752756 -0.18774,0.313815 -0.28491,0.380752 -0.257713,0.380752 -0.00429922,-0.00308268 -0.00859843,-0.00616536 -0.0128976,-0.00924804 0.0626496,-0.104744 0.125303,-0.209488 0.187957,-0.314236 -0.0228937,0.000716536 -0.0454803,-0.00250788 -0.0676654,-0.0108425 3.93701e-006,-7.87402e-006 7.87402e-006,-1.5748e-005 1.1811e-005,-2.75591e-005 -0.0244331,-0.00918505 -0.0479961,-0.024437 -0.0704528,-0.0472796zm2.74311 4.42123c-0.0101575,0.0358307 -0.0456811,0.0589725 -0.106567,0.069441 0.106197,-0.000326772 0.148268,0.037004 0.106567,-0.069441zm-0.183008 0.0685552c0.308103,-0.20074 0.00959843,-0.0231299 -0.0117795,-0.265925 -0.0152599,3.14961e-005 -0.0305236,6.69292e-005 -0.0457835,9.44883e-005 -0.104102,0.0274606 -0.210929,0.0276851 -0.320481,0.000665355 -1.67625,0.00347244 -3.35249,0.0069567 -5.02875,0.010437 -0.00100394,-0.00119291 -0.00200788,-0.00238189 -0.00301575,-0.00357087 -0.151335,0.0741969 -0.257874,0.177555 -0.225713,0.351898 0.0506772,-0.000807087 0.183417,-0.0351063 0.178945,-0.0028504 1.80951,-0.117599 3.63834,-0.0850709 5.45724,-0.0896497 -0.00022441,-0.000366142 -0.000448819,-0.000732284 -0.000669292,-0.00109843zm-1.07242 -1.07184c0.024063,0.00064567 0.04813,0.00129528 0.0721969,0.00194488 -0.0163622,0.0109055 -0.0327244,0.021815 -0.0490866,0.0327244 -0.00770473,-0.0115591 -0.0154095,-0.0231142 -0.0231103,-0.0346693zm-0.0872481 -0.0847402c0.047752,-0.0112402 0.0905749,-0.0330709 0.131839,-0.062193 0.00797245,0.0113386 0.0159449,0.0226772 0.0239213,0.0340158 -0.0824607,0.0582323 -0.0741772,0.035941 -0.15576,0.0281772zm-0.05513 -0.0894213c0.0725749,-0.0247205 0.0793465,-0.0150787 0.137811,-0.0618583 -0.0332874,0.0439725 -0.0708937,0.0830001 -0.124465,0.101244 -0.00444882,-0.0131299 -0.00889764,-0.0262599 -0.0133465,-0.0393859zm0.365296 0.523674c-0.00455906,0.0130709 -0.00911418,0.0261457 -0.0136693,0.0392205 -0.0660827,-0.0229882 -0.12452,-0.0565985 -0.178315,-0.101913 0.10561,0.0559922 0.135421,0.0430236 0.191984,0.062693zm-0.330969 -0.129295c0.0394173,0.0434646 0.058189,0.0677363 0.13235,0.174177 -0.059063,-0.0408898 -0.112764,-0.0908268 -0.163114,-0.146343 0.010252,-0.00927953 0.0205079,-0.0185591 0.0307638,-0.0278347zm-0.139579 -0.277807c-0.0259331,0.0108701 -0.0477599,0.0237953 -0.0408662,0.0510827 -0.0107953,-0.00862993 -0.0215906,-0.0172559 -0.0323858,-0.0258819 0.0342914,-0.0428622 0.0514803,-0.0319488 0.073252,-0.0252008zm-0.73476 0.279666c0.0347362,-0.00953544 0.0694725,-0.0190709 0.104209,-0.0286063 -0.0617363,0.0332441 -0.0338189,0.0523189 -0.0933032,0.0686457 -0.0036378,-0.0133465 -0.00727166,-0.0266929 -0.0109055,-0.0400394zm-0.103784 -0.0272205c0.0552874,-0.0270551 0.0577638,-0.00960237 0.114264,-0.00972835 -0.0320118,0.0156654 -0.0640237,0.0313307 -0.0960355,0.0469961 -0.00607874,-0.0124252 -0.0121536,-0.0248465 -0.0182284,-0.0372677zm1.31234 -1.06347c-9.84253e-005,0.00117323 -0.000196851,0.00234646 -0.000291339,0.00352362 0.000696851,-0.000716536 0.00139764,-0.00142913 0.00209843,-0.00214173 -0.000602363,-0.00046063 -0.00120473,-0.00092126 -0.00180709,-0.00138189zm-0.375658 -0.0432205c0.112528,0.00470079 0.225055,0.00940158 0.337587,0.0141063 -0.0231851,-0.0177244 -0.0193189,-0.024941 -0.0242677,-0.0595945 -0.0324764,-0.00449607 -0.064189,-0.00370866 -0.0953426,-0.00319685 -0.0752087,0.00123622 -0.147969,0.0202323 -0.217977,0.0486851zm-0.116012 0.188587c0.00520473,0.0128583 0.0104134,0.0257166 0.0156221,0.0385748 -0.130114,0.0531024 -0.136614,0.0108071 -0.0156221,-0.0385748zm1.57204 -0.592914c0.00895276,0.0105787 0.0179055,0.0211575 0.0268583,0.0317402 -0.0454292,0.0385433 -0.0908583,0.0770906 -0.136287,0.115638 0.0364764,-0.049126 0.0729528,-0.098252 0.109429,-0.147378zm-2.36972 1.094c0.0306496,-0.0306496 0.0612993,-0.0612993 0.0919489,-0.0919489 0.0098189,0.0098189 0.0196378,0.0196378 0.0294567,0.0294567 -0.0404685,0.0208307 -0.0809371,0.0416614 -0.121406,0.0624922zm0.0592441 -0.142697c0.00846457,0.0109567 0.0169291,0.0219134 0.0253937,0.032874 -0.0415473,0.0320118 -0.0830945,0.0640237 -0.124642,0.0960355 0.0330827,-0.0429725 0.0661654,-0.085941 0.0992481,-0.12891zm-1.10908 -2.5134c-0.131791,0.184776 0.00546851,0.118099 0.0741536,0.149559 -0.18328,0.0376536 -0.200154,-0.0444449 -0.108004,-0.173646 0.0112835,0.00802756 0.0225669,0.0160551 0.0338504,0.0240866zm0.478642 -0.22861c0.0750985,0.0670079 0.0925985,0.150563 0.0249488,0.229236 0.0178976,-0.118118 0.05313,-0.103784 -0.0526181,-0.19815 0.00922048,-0.0103622 0.0184449,-0.0207244 0.0276693,-0.0310866zm-0.787378 2.60659c0.0569882,-0.0179488 0.121744,-0.031374 0.189039,-0.0331378 0.0380827,-0.024311 0.0775237,-0.0470512 0.118228,-0.0681969 -0.2035,-0.0333504 -0.201543,-0.0302756 -0.307268,0.101335zm-0.193914 0.0928229c0.0211299,-0.0163347 0.0652323,-0.0426654 0.123579,-0.0670748 -0.0331536,-0.0878268 0.276071,-0.129626 -0.00282677,-0.231217 -0.111595,0.0322362 -0.223185,0.0644725 -0.334776,0.0967127 -0.00142913,-0.00492914 -0.00285827,-0.00985827 -0.0042874,-0.0147835 -0.00274016,0.00291732 -0.00547244,0.00583859 -0.0082126,0.00875985 0.0514528,0.0448701 0.131465,0.107406 0.226524,0.207602zm1.15041 0.0647166c0.0411181,-0.0335473 0.0921457,-0.0526063 0.153071,-0.0571772 0.0010315,0.0138347 0.00206299,0.0276693 0.00309449,0.041504 -0.062941,0.00472048 -0.113032,0.0269882 -0.150252,0.0667953 -0.10961,0.117228 -0.118874,0.327851 -0.124476,0.479839 -0.0369134,-0.238244 -0.0291299,-0.469949 0.162114,-0.640481 0.00922048,0.0103622 0.0184449,0.0207244 0.0276693,0.0310866 -0.0277402,0.0247362 -0.051315,0.050941 -0.0712205,0.0784331zm-2.47099 0.300996c-0.0657323,-0.0456339 -0.112724,-0.0987599 -0.151205,-0.155291 -0.0136772,-0.0132638 0.167618,0.114378 0.151205,0.155291zm0.176063 -0.755686c-0.0618189,0.0124961 -0.106827,0.0384213 -0.115536,0.0934016 -0.0537402,-0.067567 0.077004,-0.139362 0.116854,-0.0959174 0.0312677,-0.0594922 0.0678308,-0.123079 0.127756,-0.15485 -0.0313583,0.0599922 -0.0627205,0.119988 -0.0940827,0.179984 -0.0122599,-0.00640158 -0.0245197,-0.0128032 -0.0367796,-0.0192047 0.000598426,-0.0011378 0.00119291,-0.00227559 0.0017874,-0.00341339zm2.1221 -1.74071c0.0132835,-0.0330709 0.0426142,-0.0922835 0.0838111,-0.156949 0.0187244,-0.0293898 0.0156299,-0.0781339 0.0388701,-0.107839 0.0446221,-0.0570315 0.121138,-0.0928623 0.178197,-0.13015 -0.131591,0.126803 -0.210677,0.26861 -0.265886,0.417236 -0.0116654,-0.00743308 -0.0233307,-0.0148662 -0.0349921,-0.0222992zm-1.48057 -0.525733c-0.0239173,0.0647205 -0.0533583,0.052437 -0.108602,0.173843 0.0231772,-0.0627205 0.0463583,-0.125441 0.0695394,-0.188165 0.0130197,0.00477559 0.0260394,0.00955119 0.039063,0.0143228zm-0.238768 0.499378c0.0125315,0.00591339 0.025063,0.0118268 0.0375984,0.0177402 -0.0695276,0.0954449 -0.114528,0.190894 -0.134988,0.286339 0.0296103,-0.150406 0.0530985,-0.223028 0.0973898,-0.304079zm0.0930355 1.19037c-0.00965355,0.0684725 0.0312323,0.103236 0.0950749,0.122677 -0.0737363,0.0569449 -0.159209,-0.0731339 -0.0950749,-0.122677zm-0.192457 -0.80476c0.0329449,0.229744 0.0978701,0.478681 0.171748,0.732997 -0.0135079,0.00314567 -0.0270158,0.00629134 -0.0405276,0.00944095 -0.00153937,-0.116236 -0.191142,-0.735449 -0.131221,-0.742437zm0.325496 0.006563c0.00727166,-0.0685434 0.00429134,-0.132988 -0.0705394,-0.168681 0.0851024,-0.0353544 0.126272,0.145532 0.0705394,0.168681zm2.66803 -0.543567c-0.0395,0.146894 -0.0790001,0.33261 -0.1185,0.4795 0.00362599,-0.00625591 0.00725197,-0.0125158 0.010878,-0.0187756 0.0119882,0.00694489 0.054626,-0.170008 0.0666182,-0.163063 -0.0314134,0.290973 -0.301894,0.616682 -0.386429,0.762575 -0.00555906,-0.0290591 0.354571,-0.554681 0.284138,-0.537949 -0.00926772,-0.00247638 -0.0164921,0.0318268 -0.0257559,0.0293504 0.0244291,-0.0908583 0.111858,-0.403457 0.169051,-0.551638zm-0.586217 1.16847c0.0994883,-0.0806693 0.253126,-0.339977 0.375484,-0.56837 -0.0617402,0.124638 -0.0127402,0.103732 -0.339516,0.58904 -0.0119921,-0.00688977 -0.0239803,-0.0137795 -0.0359685,-0.0206693zm0.624032 -0.723721c0.0674292,0.119874 0.134858,0.239748 0.202288,0.359622 -0.0195906,-0.00275591 -0.0391811,-0.00550788 -0.0587678,-0.00825985 -0.0478426,-0.117122 -0.0956812,-0.234244 -0.14352,-0.351362zm0.0335315 0.948087c-0.00451181,-0.024878 -0.0125,-0.0452835 -0.0232244,-0.0621733 -0.0142126,0.0324843 -0.0304095,0.0671811 -0.0488465,0.104492 0.0136417,-0.0402008 0.0257559,-0.0809252 0.0361969,-0.121457 -0.0151496,-0.0174055 -0.033874,-0.0302126 -0.0548819,-0.0400906 0.0168976,-0.0129055 0.0416063,-0.00861418 0.0635867,0.00466536 0.0384134,-0.16415 0.048252,-0.321721 0.0186181,-0.424906 -0.00882678,-0.0307284 -0.157941,0.332071 -0.168421,0.302508 -0.00293307,-0.00826772 0.0500866,-0.112406 0.0512874,-0.22491 0.00517717,-0.484922 0.0212323,-0.322862 0.0284213,-0.0673898 0.000637796,0.0226851 0.0122992,-0.0426299 0.017626,-0.0615315 0.0164213,-0.0582481 0.00661811,-0.24128 0.0123898,-0.24337 0.00277559,0.00759449 0.0464174,0.129614 0.0491929,0.137209 7.87402e-006,0 1.5748e-005,-3.93701e-006 2.75591e-005,-7.87402e-006 0.0734686,0.200677 0.132882,0.300276 0.0106457,0.597512 0.0294961,0.0279213 0.044689,0.0709607 0.00738189,0.0994489zm-0.258083 -0.211602c0.0139331,0.0708937 0.0507087,0.0993662 0.0978741,0.108551 -0.0450866,0.0405906 -0.162339,-0.0505118 -0.0978741,-0.108551zm-0.864166 0.602418c0.0524961,0.0136496 0.101728,-0.00533071 0.14948,-0.0391496 0.0103504,0.0372874 -0.132827,0.1 -0.14948,0.0391496zm1.77606 0.759701c-0.0817914,-0.0162441 -0.0815079,-0.000188977 -0.144134,-0.0146417 0.0164016,-0.0716221 0.0815119,0.000192914 0.144134,0.0146417zm-2.16303 -2.47278c0.0169803,0.0230433 0.0280551,0.0514252 0.0349607,0.083563 0.0006063,0.00281496 0.00117323,0.00566536 0.00171654,0.00853938 0.00115748,-0.0027126 0.00234252,-0.00540552 0.00355512,-0.00805906 0.0169961,-0.0372441 0.0392677,-0.0684685 0.0677205,-0.0925749 -0.000799213,-0.00577559 -0.00159843,-0.0115512 -0.0023937,-0.0173268 -0.0340276,0.0126811 -0.0695473,0.0210236 -0.105559,0.0258583zm0.0724764 -0.0789922c-0.0110591,-0.00142913 -0.0221181,-0.00285433 -0.0331772,-0.00427953 -0.008063,0.00590945 -0.0161221,0.0118189 -0.0241811,0.0177323 0.0192835,-0.00357481 0.0384528,-0.0080315 0.0573583,-0.0134528zm1.5411 -0.294717c0.0368032,0.0112441 0.0736063,0.0224882 0.11041,0.0337362 -0.00401575,0.0132362 -0.0080315,0.0264725 -0.0120473,0.0397087 -0.0596733,-0.0182362 -0.0664882,-0.0465237 -0.0983623,-0.0734449zm-1.29259 -0.0485788c0.0362953,-0.0672953 0.124776,-0.158843 0.183646,-0.252914 -0.0490079,0.0908701 -0.119457,0.178677 -0.168465,0.269543 -0.0122087,-0.00656693 -0.00297638,-0.0100669 -0.0151811,-0.0166299zm-0.82915 0.91791c-0.0286339,-0.0190906 -0.0572678,-0.0381811 -0.0859016,-0.0572678 0.00770473,-0.0115591 0.0154095,-0.0231142 0.0231103,-0.0346693 0.0286339,0.0190866 0.0572678,0.0381772 0.0859016,0.0572678 -0.00770079,0.0115551 -0.0154055,0.0231103 -0.0231103,0.0346693zm-0.0253425 -0.095756c-0.0368701,-0.0715355 -0.0867284,-0.136902 -0.11541,-0.208366 -0.0172362,-0.0429528 -0.0335984,-0.0862835 -0.0495788,-0.129776 0.00962993,0.180106 0.0381811,0.367622 0.0630906,0.390504 -0.000271654,0.00325591 0.130205,0.0702914 0.129933,0.0735473 -0.200602,-0.0663741 -0.219929,0.0809095 -0.144099,0.205874 -0.0010315,0.00198032 -0.0754095,-0.0056063 -0.0764371,-0.00362992 -0.0561733,0.0276221 -0.085067,0.0661496 -0.0866969,0.115595 -0.00172835,0.00457874 -0.094189,0.0315394 -0.127099,0.127504 -3.93701e-006,-3.93701e-006 -1.1811e-005,-1.1811e-005 -1.96851e-005,-1.96851e-005 -0.00979528,0.0105512 -0.0195906,0.0210984 -0.0293858,0.0316496 0.011,-0.00586615 0.0219961,-0.0117323 0.0329921,-0.0175945 0.0256851,0.0481614 0.051374,0.0963268 0.077063,0.144492 -0.0616536,-0.0450394 -0.0818859,-0.0653426 -0.113016,-0.123713 -0.0307874,0.0331575 -0.0615788,0.066315 -0.0923701,0.0994764 -0.0101417,-0.00944095 -0.0202874,-0.0188819 -0.0304331,-0.0283229 0.0160079,-0.0172402 0.120311,-0.126654 0.125713,-0.135425 0.0197047,-0.0469764 0.0420985,-0.0885001 0.105433,-0.124567 -0.0103504,-0.0370984 0.0366103,-0.0742008 0.102614,-0.111303 -0.025252,-0.0580079 0.0369055,-0.177551 0.0840001,-0.252004 -0.0561418,-0.135756 -0.0815985,-0.274181 -0.0929922,-0.406567 -0.00211024,-0.0245079 -0.00987009,-0.0222599 -0.011126,-0.0463071 -0.0287717,-0.0515473 -0.0144055,-0.14791 -0.0744764,-0.0633819 -0.128677,0.181067 -0.272406,0.296618 -0.262815,0.542819 0.0134528,0.344795 0.0360827,0.787343 0.018941,1.08386 -0.0308622,0.00109055 -0.0282047,-0.148162 -0.0397953,-0.307477 -0.0518229,0.0686772 -0.0201496,0.122713 -0.022563,0.198973 -0.0473583,-0.124102 -0.0498662,-0.114965 -0.00694489,-0.225315 0.00947638,0.00366142 0.0189528,0.00732678 0.0284252,0.0109921 -0.0198819,-0.28891 -0.0174173,-0.699493 -0.0206063,-0.782461 -0.00225591,-0.058689 -0.0086063,-0.178756 -0.104945,-0.180189 -0.000110236,-0.00293701 0.0979489,-0.00178347 0.0978347,-0.00472048 0.0155512,-0.0177205 0.0311024,-0.035441 0.0466496,-0.0531615 0.107961,-0.128028 0.20148,-0.264894 0.29404,-0.403914 0.050941,-0.0929882 0.177602,-0.536524 0.240103,-0.522465 -0.0233307,0.103764 -0.0307835,0.25261 0.00737008,0.379516 0.0121693,-0.00640945 0.0243386,-0.0128189 0.036504,-0.0192244 0.0340079,0.0641654 0.0797323,0.116539 0.140776,0.153043 -0.0789922,-0.0202087 -0.149437,-0.0809725 -0.176843,-0.132335 0.0284134,0.0935158 0.0817205,0.174949 0.171902,0.217362 0.0650197,0.0305788 0.191036,0.0588977 0.324673,0.0527244 -0.00420079,-0.0161063 -0.00840158,-0.0322087 -0.0126024,-0.0483111 0.0134016,-0.00347244 0.0267992,-0.00694489 0.0401969,-0.0104173 0.00349607,0.0133937 0.00698819,0.0267874 0.0104803,0.0401811 0.0688819,-0.0505197 0.0787953,-0.0528465 0.165083,-0.0417126 0.0434685,-0.0449685 0.0724095,-0.0182835 0.110713,-0.0547402 -0.0123268,0.012748 -0.0246496,0.0254961 -0.0369725,0.0382481 0.0650158,-0.039441 0.120823,-0.096378 0.158343,-0.176347 -0.0380906,0.132665 -0.110724,0.213634 -0.197886,0.259862 0.208154,-0.0448347 0.266855,-0.313803 0.378075,-0.476977 0.00555906,-0.00917323 0.0111181,-0.0183465 0.0166811,-0.0275197 -0.0632678,0.0736378 -0.145004,0.177288 -0.179315,0.238646 0.0094882,-0.108276 0.130484,-0.221103 0.198587,-0.270429 0.0372717,-0.0614449 0.0744528,-0.122567 0.111256,-0.182374 -0.0596063,-0.00735827 -0.11652,-0.0209213 -0.169673,-0.0431024 -0.0421221,-0.0175748 -0.0818111,-0.0405158 -0.118543,-0.0699882 -0.00470866,0.00747638 -0.00941339,0.0149528 -0.0141181,0.0224252 -0.00223622,-0.00140551 -0.00450394,-0.00286221 -0.00679528,-0.0043504 0.00767717,0.0119567 0.00972835,0.0299331 0.00431496,0.0555394 -0.013563,-0.00282284 -0.027126,-0.00564567 -0.0406851,-0.00846457 0.00355906,-0.0168425 0.00272441,-0.023689 -0.000629922,-0.0243977 -0.0286063,-0.00604331 -0.103728,0.0414488 -0.146012,0.0665355 0.0503859,-0.0652008 0.100717,-0.118583 0.154476,-0.107221 0.00103937,0.000220473 0.00205512,0.000464567 0.00305512,0.00072441 -0.0420473,-0.029504 -0.090941,-0.0677559 -0.140894,-0.102142 -0.0971851,0.047441 -0.088752,0.0659134 -0.150732,0.101787 -0.00694489,-0.0119921 -0.0138898,-0.0239803 -0.0208347,-0.0359685 0.0525276,-0.0304055 0.107764,-0.0574607 0.167252,-0.0687796 -0.047941,-0.0327402 -0.0966969,-0.0615788 -0.141162,-0.0753898 0.0703662,0.0186732 0.127398,0.0416142 0.174614,0.0650906 -0.0335236,-0.0246536 -0.054315,-0.0525 -0.0662323,-0.0825591 -0.0204055,-0.0514725 -0.0139095,-0.107118 -0.000688977,-0.163788 0.00116536,-0.00251969 0.00233071,-0.00504331 0.0035,-0.00756693 0.0681733,-0.0927166 0.13635,-0.185437 0.204528,-0.278158 0.0129449,-0.0139055 0.155929,-0.0803819 0.16565,-0.0893071 0.0228543,-0.0357599 0.051189,-0.0649252 0.0849922,-0.0874607 0.0181536,-0.0148858 0.0468071,-0.0264606 0.0702048,-0.0345236 -0.0412874,-0.0179252 -0.0530709,-0.0666615 0.0148701,-0.0931339 -0.0512914,0.0966812 0.0123228,0.0630079 0.0807678,0.0308544 0.0133858,0.0334882 0.0354528,0.0863347 0.0710473,0.0832678 0.0601575,-0.00518111 0.0500394,-0.04863 0.0815906,-0.0647008 -0.0164095,0.124319 -0.118154,0.144701 -0.174197,0.036689 -0.00675197,0.00263386 -0.0132717,0.00485827 -0.0195394,0.00661811 0.00172047,0.00920473 0.00344488,0.0184095 0.00516929,0.0276103 -0.0408347,0.00765355 -0.0764725,0.0216299 -0.106886,0.0419055 -3.93701e-006,-3.93701e-006 -7.87402e-006,-1.1811e-005 -1.1811e-005,-1.96851e-005 -0.0373386,0.0249173 -0.0527953,0.0586142 -0.0836693,0.0869764 -0.0530906,0.027874 -0.106181,0.0557441 -0.159268,0.0836142 -0.0248977,0.0338583 -0.111043,0.122654 -0.074689,0.101575 0.110539,-0.0640985 0.177315,-0.0974174 -0.0622363,0.0846418 -0.027878,0.0211851 -0.0414882,0.0564331 -0.0622363,0.0846457 -0.00685827,0.0301732 -0.0114803,0.0596811 -0.0101024,0.0873583 0.000822835,0.0166024 0.05613,0.0349331 0.0620945,0.0499803 0.0229291,0.0578426 0.0253583,0.0792638 0.0614056,0.0947953 -0.0923741,-0.13626 -0.0618189,-0.238732 0.0801654,-0.311126 -0.103606,0.0883347 -0.118831,0.188311 -0.0371693,0.300166 -0.00855512,0.00622835 -0.0171102,0.0124567 -0.0256654,0.0186851 0.00576772,0.00279134 0.0103386,0.00542126 0.0132402,0.00812599 0.0295906,0.0360866 0.0730315,0.111413 0.107752,0.087004 0.085815,-0.0603229 0.0606575,-0.0232362 0.032189,0.0255591 -0.00648032,0.0111063 0.0232166,0.0121299 0.0360709,0.0184606 0.0345433,-0.106913 0.102063,-0.185799 0.105177,-0.149717 0.0066693,0.0772441 0.0528189,0.075441 0.0885788,0.146748 0.00661811,0.0132008 0.0108465,-0.0650748 0.016441,-0.0458859 0.0236772,-0.0131614 0.0154016,0.0556103 0.0283465,0.0331142 0.0664567,-0.115508 0.0858504,-0.124307 0.110319,-0.123854 0.0167441,0.000307087 -0.00848426,0.0633937 0.052941,0.0699528 0.014248,-0.00953938 0.0352244,-0.0690158 0.0486339,-0.0785394 0.0172441,-0.0122441 0.0266536,0.0254449 0.042441,0.0132205 0.0218307,-0.0169055 0.0422441,-0.0337953 0.0611181,-0.0506536 0.00729134,-0.0100276 -0.093819,-0.127772 -0.0341103,-0.0864528 0.00993308,0.00687402 0.0614725,0.0324528 0.0652402,0.0214252 0.0165788,-0.0485394 0.0158543,-0.0950631 0.0619174,-0.0961536 -0.0429843,-0.0374922 -0.0321536,-0.0668268 0.0120709,-0.0920985 0.00887008,-0.00506693 -0.00696851,-0.0193465 -0.0120315,-0.0286811 -0.0194055,-0.0134331 -0.038811,-0.0268662 -0.0582126,-0.0402992 0,-0.00633859 0,-0.0126772 0,-0.0190197 1.1811e-005,0 2.36221e-005,0 3.54331e-005,0 0.0109843,-0.0273819 0.00971654,-0.0527244 -0.00380315,-0.0760276 -0.0122362,-0.0224764 -0.0230866,-0.0453189 -0.0339331,-0.0681575 -0.0360236,-0.0758544 -0.0720591,-0.151717 -0.146193,-0.184469 0.0442677,-0.0230866 0.113209,0.0349292 0.140965,0.0826142 0.0111969,-0.111098 -0.00981103,-0.222973 -0.0364803,-0.334965 -0.0277284,0.00154725 -0.0540591,-2.36221e-005 -0.0784961,-0.00581103 0,-3.93701e-006 0,-1.1811e-005 3.93701e-006,-1.96851e-005 -0.0461024,-0.010937 -0.075252,-0.0341929 -0.106051,-0.0707914 0.00857875,-0.0103307 0.0171575,-0.0206614 0.0257402,-0.0309961 -0.00488977,-0.00126378 -0.00977953,-0.0025315 -0.0146654,-0.00379922 0.0339252,-0.102016 0.0976103,-0.214036 0.108425,-0.153878 0.0075,0.0417048 0.0805552,-0.025311 0.13039,-0.035189 0.00171654,-0.0072441 0.00343307,-0.0144882 0.00514961,-0.0217362 -0.00809843,-0.00261024 -0.0129488,-0.0132559 -0.0216221,-0.0129134 -0.0305433,0.00121654 -0.0415315,-0.0239213 -0.0350591,-0.0713741 0.0060315,-0.0442244 -0.0156969,-0.0981654 -0.0201142,-0.153768 -0.010941,-0.021315 -0.0445394,-0.0688268 -0.0459016,-0.0469488 -0.00418111,0.0671378 -0.0125551,0.119563 -0.0490551,-0.00950394 -0.0091378,-0.032311 -0.0722914,-0.0139528 -0.11135,-0.012315 -0.0728308,0.00970867 -0.145886,0.0185236 -0.221528,0.0165473 -0.0185354,0.00575985 -0.0528071,0.0112953 -0.0885552,-0.00911812 -0.0103465,-0.00590945 -0.024,0.000370079 -0.0357205,0.000972442 -0.0400866,0.0348071 -0.0407205,0.0153662 -0.101299,0.0763465 0.00269685,-0.00704331 0.00564174,-0.0138543 0.00883465,-0.0204291 -0.0331457,0.00772441 -0.0546654,0.0269449 -0.0510906,0.0709449 -0.0119921,-0.00694489 -0.0239803,-0.0138898 -0.0359685,-0.0208347 0.0275866,-0.0476693 0.0617717,-0.0831969 0.0957127,-0.0663347 0.00819686,-0.0140276 0.029504,-0.0257559 0.0467284,-0.0367481 -0.031441,0.00350788 -0.0539685,0.00907875 -0.0524213,0.0155394 0.010878,-0.0130551 0.0217559,-0.0261103 0.0326378,-0.0391654 -0.0737048,-0.0227795 -0.151008,-0.0683977 -0.219713,-0.0556772 -0.0352126,0.00652363 -0.0606181,0.0298898 -0.0744213,0.0731457 0.00878741,0.0467481 -0.0155866,0.160209 0.0235551,0.137441 0.114039,-0.0663426 0.146961,-0.0686378 0.0331693,0.0232795 -0.0150236,0.0121339 -0.0461142,0.0492205 -0.0280394,0.0457481 0.100201,-0.0192599 -0.0346693,0.128658 0.00448425,0.100996 0.0344685,-0.0243504 0.0723426,-0.025563 6.29922e-005,0.0545591 -0.0131575,0.0145866 0.0152559,0.0365827 0.0153583,0.051 8.26772e-005,0.0233189 -0.0254882,0.218882 -0.0302008,0.25848 0.00987402,-0.00259843 0.019752,-0.00519685 0.0296299,-0.00779922 0.00503544,0.0191339 0.0325512,-0.0381733 0.0300591,-0.018874 -0.0100394,0.0777481 0.0211929,0.23804 0.0582678,0.180358 0.016937,-0.0263504 -0.0102008,0.0303386 -0.00822441,0.0738504 0.0192795,-0.0416851 0.0303937,-0.0550158 0.0352205,-0.046878 0.00620473,0.0104646 -0.0265079,0.0299252 -0.00133071,0.115146 0.00801969,0.0129803 0.0385945,0.0163347 0.046626,0.0295079 0.0133898,0.0219606 0.00407087,0.0531024 0.0158701,0.0687048 -0.0196693,-0.0143898 -0.0200433,-0.0407362 -0.0360079,-0.0563426 -0.0126221,-0.0123425 -0.0355748,-0.0246181 -0.0520591,-0.0265984 -0.0170039,-0.00204331 -0.0298701,-0.0145669 -0.0357559,-0.049567 -0.0176102,-0.104724 -0.073441,-0.180713 -0.0857599,-0.232386 -0.00197638,0.0165827 -0.00379922,0.0534922 -0.00919292,0.0673937 -0.00862993,0.0177362 -0.0348229,0.0356378 -0.0258858,0.0532126 0.0270669,0.0532402 0.0393268,0.0828111 -0.0164961,0.0886812 -0.0592717,0.00623229 -0.0921221,0.136071 -0.144847,0.17413 0.0236969,-0.0689961 0.10602,-0.137913 0.0892599,-0.182658 -0.0162126,-0.0432717 0.0037441,-0.0712284 0.033504,-0.0958662 -0.00319685,0.00325591 -0.00662205,0.00602756 -0.0103228,0.0082441 -0.0246969,0.0147835 -0.0538347,0.00669292 -0.0907008,-0.0413229 -0.0243386,-0.0255315 -0.0426811,-0.050437 -0.0566181,-0.0748741 -0.0207992,0.010311 -0.049004,0.025252 -0.0659646,0.0331693 0.0279488,-0.0453819 0.0132953,-0.0520158 0.0478189,-0.0703623 -0.022437,-0.0547638 -0.026126,-0.107555 -0.0297992,-0.160343 -0.00394488,-0.0569213 0.0552796,-0.116484 0.0971024,-0.118307 -0.0349173,-0.0302008 -0.0664528,-0.0623386 -0.0923308,-0.0977048 -0.00348032,0.107929 -0.0174252,0.210264 -0.0366969,0.306173 -0.00482284,0.0240118 -0.0197992,0.0474134 -0.0153976,0.070815 0.0277914,0.147772 0.022815,0.167933 -0.0148701,0.0604449 -0.00387402,0.0211851 -0.00800394,0.0419961 -0.0123858,0.0624213 -0.0357126,0.166315 -0.0886064,0.30711 -0.162465,0.416729 0.0275906,0.00355118 0.0445827,0.0031811 0.0689882,-0.00242126 -0.0182795,-0.0696339 0.179929,-0.15139 0.240366,-0.190721 -0.087693,0.0581063 -0.150725,0.134709 -0.207134,0.181634 0.0446496,-0.0134134 0.115799,-0.0373544 0.258177,-0.0751103 -0.0831142,0.043563 -0.22141,0.123902 -0.423028,0.151118 -0.126571,0.0170827 -0.20028,0.0450237 -0.325213,0.111398 -0.0665237,0.0353425 -0.095382,0.0346221 -0.210449,0.109142 -0.119787,0.0775788 -0.169839,0.235697 -0.237823,0.37867 -0.0816497,0.171721 -0.145386,0.370453 -0.184784,0.605843 -0.0036063,0.0154331 -0.0943583,0.210087 -0.108583,0.2415 -0.0290158,0.0640827 -0.0619607,0.111618 -0.0664489,0.157744 -0.0048189,0.0495591 -0.00249606,0.0859922 -0.0203898,0.125256 -0.027437,0.060189 3.54331e-005,0.142232 0.0253701,0.25776 0.0598386,0.27287 0.140075,0.592642 0.199914,0.865512 -0.0762402,0.016441 0.0162874,-0.0927953 -0.0939292,0.0378268 0.0440315,0.0374567 0.088063,0.0749174 0.132095,0.112378 -0.00895276,0.0105236 -0.0179055,0.0210473 -0.0268583,0.0315748 -0.0439882,-0.0374252 -0.0879764,-0.0748504 -0.131969,-0.112272 -0.0136732,0.0162047 -0.0273465,0.0324095 -0.0410197,0.0486142 -0.0105787,-0.00895276 -0.0211575,-0.0179055 -0.0317402,-0.0268583 0.029311,-0.0347362 0.0586181,-0.0694725 0.0879253,-0.104205 -0.0362874,-0.00770473 -0.062315,-0.0100669 -0.0993386,-0.0140039 0.00387008,0.00370079 0.00774016,0.00740158 0.0116063,0.0111024 -0.0149843,0.0156654 -0.0299685,0.0313307 -0.0449528,0.0469961 -0.00762993,-0.00729922 -0.0152599,-0.0145984 -0.0228937,-0.0218977 -0.0049567,0.0049567 -0.00991339,0.00991339 -0.014874,0.014874 0.00242126,-0.00100787 0.00484252,-0.00201181 0.00726378,-0.00301575 0.00914568,0.0219449 0.0182914,0.0438898 0.0274331,0.0658386 0.0133386,0.00586615 0.0266772,0.0117362 0.0400158,0.0176063 0.0030315,-0.00344488 0.006063,-0.00688977 0.00909449,-0.0103347 0.0532914,0.0711536 0.111087,0.148646 0.198398,0.194288 -0.043067,0.00651182 -0.140638,-0.0637087 -0.176032,-0.11915 0.000834646,0.0516339 0.00166536,0.103268 0.00249606,0.154902 0.0105787,0.0140512 0.0260945,0.0229803 0.032504,0.0369331 0.0142441,0.0310118 0.0288701,0.0247087 0.043815,0.0335236 0.0469174,0.0420866 0.0684764,0.0302559 0.092126,0.0309685 0.016378,0.00630315 0.0389803,0.00527953 0.0491339,0.0198622 0.020874,0.0299803 0.0455,0.0361733 0.0718071,0.0315394 0.0299567,0.00686221 0.0537953,0.0361654 0.0837441,0.0430236 0.0179685,0.00411418 0.042063,-0.0141929 0.0600355,-0.0100748 0.0125,0.000830709 0.025,0.00166536 0.0375,0.0025 -0.000523622,-0.000362205 -0.00105118,-0.00072441 -0.00157874,-0.00108661 0.0244488,-0.0354134 0.0384173,-0.0267953 0.0704567,-0.0634134 0.00866142,0.00755119 0.0132441,0.00898426 0.0219016,0.0165394 0.0114724,-0.0122402 0.0229449,-0.0244764 0.0344173,-0.0367126 0.012815,-0.0394331 0.0256299,-0.0788662 0.0384449,-0.118295 0.0131811,0.00428347 0.0263662,0.00857087 0.0395512,0.0128583 -0.00734646,0.0225984 -0.0146929,0.0452008 -0.0220354,0.0678032 0.0520197,-0.0133071 0.104039,-0.0266142 0.156059,-0.0399213 -0.057193,-0.0230394 -0.114146,-0.047063 -0.170969,-0.0711615 -0.00601181,0.0100433 -0.0120197,0.0200906 -0.0180276,0.0301378 -0.0220276,-0.0131339 -0.0388583,-0.0138543 -0.0522441,0.00859843 -0.013752,0.023063 -0.0226732,0.0637993 -0.026752,0.122173 -0.0138347,-0.00092126 -0.0276693,-0.00184252 -0.041504,-0.00276378 0.00511811,-0.0732717 0.0195748,-0.184453 0.0977717,-0.179 0.0116457,0.000811024 0.0239213,0.00457481 0.0367914,0.0112874 0.00442914,-0.0105197 0.00885827,-0.0210394 0.0132913,-0.0315551 0.0976969,0.0414449 0.195795,0.0827953 0.295496,0.1195 0.0067126,-0.00194095 0.0134291,-0.00388189 0.0201457,-0.0058189 0.00141732,0.00489764 0.00283858,0.00979528 0.00425985,0.0146969 0.0504055,0.0181102 0.101284,0.0349685 0.152721,0.0499174 0.000185039,-0.00022441 0.000374016,-0.000448819 0.000562992,-0.000673229 0.0462166,0.0384567 0.258902,0.0575079 0.320996,0.0626221 0.0791221,0.00651575 0.157118,0.0500158 0.235016,0.0353071 0.158307,-0.0298898 0.22652,-0.0457323 0.174547,0.00547244 -0.0950276,0.093626 0.407355,0.0643111 0.629922,-0.0285 0.000488189,0.0138347 -0.247606,0.127709 -0.247118,0.141543 -0.160843,0.00584646 -0.314433,-0.0261063 -0.468429,-0.0581418 -0.031,-0.00644489 -0.37602,-0.0597559 -0.374599,-0.0567835 -0.0392756,0.0188032 -0.0763386,0.0387047 -0.111539,0.0596536 0.0463425,0.00535827 0.0929528,0.0172362 0.138205,0.0379331 -0.0651811,-0.00691339 -0.125083,-0.0113032 -0.181004,-0.011374 -0.228217,0.147725 -0.376469,0.343055 -0.544752,0.574473 0.0966654,-0.237288 0.257256,-0.428296 0.461638,-0.570937 -0.0618111,0.00572835 -0.118961,0.0188386 -0.173587,0.0422914 -0.00371654,0.00451575 -0.00751969,0.00911418 -0.0114724,0.0138583 -0.00233071,-0.00194095 -0.00445276,-0.00384646 -0.00644882,-0.0057441 -0.0386378,0.0183976 -0.0761103,0.0422559 -0.113201,0.0726575 0.0113661,0.0125158 0.0229173,0.0255591 0.0346339,0.0391772 -0.109539,-0.0753071 -0.239528,-0.138343 -0.349063,-0.21365 -0.000102362,0.000110236 -0.000204725,0.000220473 -0.000307087,0.000330709 0.00212205,0.00252362 0.0042441,0.00504725 0.00636615,0.00757087 -0.141091,0.118811 -0.306276,0.151673 -0.480607,0.21637 0.179713,-0.0861733 0.339469,-0.151728 0.42602,-0.224622 -0.0193307,-0.0012874 -0.0400394,-0.000618111 -0.0590827,-0.00420866 -0.0502402,0.0205 -0.100473,0.00173228 -0.150713,-0.034878 -0.0283386,0.00111024 -0.056,-0.00187795 -0.0788741,-0.0335236 -0.00876379,-0.012126 -0.0275473,-0.0117047 -0.0413189,-0.0175591 -0.0217717,0.0118425 -0.0391024,-0.0218543 -0.0691063,-0.0191299 -0.0180236,0.0016378 -0.0404803,0.00698426 -0.0706378,-0.0452717 -0.0167559,-0.0290355 -0.0530315,-0.0495355 -0.0563032,-0.0689252 -0.00101969,-0.0633859 -0.00204331,-0.126768 -0.00306693,-0.19015 0.00337795,-5.51181e-005 0.00675591,-0.000110236 0.0101339,-0.000161417 -0.00280709,-0.00247244 -0.00561811,-0.00494489 -0.00842914,-0.00741733 -0.0015,0.00340945 -0.003,0.00682284 -0.00450394,0.0102362 -0.0737284,-0.032441 -0.0539528,-0.0144606 -0.0925552,-0.107102 0.00977166,-0.00405906 0.0195433,-0.00811812 0.029311,-0.0121732 -0.0096378,-0.00964174 -0.0192795,-0.0192835 -0.0289213,-0.0289213 0.0227677,-0.0227677 0.0455355,-0.0455355 0.0682993,-0.0682993 0.0928898,0.00983072 0.0885316,0.00745276 0.175504,0.0259055 -0.00774016,-0.0227047 -0.0152008,-0.0454095 -0.0223937,-0.0681142 -0.0025315,-0.00798032 -0.00891339,-0.0157205 -0.00749213,-0.0239449 0.00612205,-0.0353583 -0.0892875,-0.0459213 -0.104717,-0.0377756 -0.0149291,0.00788189 0.0823308,-0.0375 0.0777914,-0.053689 -0.0846969,-0.302099 -0.129221,-0.604209 -0.182185,-0.906312 0.00046063,-0.00431103 0.00092126,-0.00862205 0.00138189,-0.012937 0.0767008,-0.169382 0.153402,-0.338764 0.230103,-0.508146 0.0401063,-0.238229 0.104847,-0.439685 0.187736,-0.614016 0.0465433,-0.097882 0.14102,-0.282792 0.23574,-0.392583 0.0470788,-0.0545788 0.0785709,-0.0702205 0.145988,-0.0887442 0.0889449,-0.0244331 0.178988,-0.0447677 0.262658,-0.0890119 0.0656378,-0.0347087 0.117665,-0.0388071 0.1765,-0.0582087 -0.00233465,-0.00180315 -0.00466929,-0.0036063 -0.00700394,-0.00540945 0.0935237,-0.121232 0.155854,-0.291004 0.193831,-0.49865 0.0383032,-0.209429 0.0517323,-0.456957 0.0472874,-0.731855 0.000736221,-0.015063 0.0460709,-0.17439 0.0536536,-0.202547 -0.12561,-0.0546536 -0.228433,-0.0992245 -0.255886,-0.191197 -0.0257126,-0.0861418 -0.0422914,-0.181146 0.0364449,-0.347681 0.0482756,-0.102114 0.137335,-0.170894 0.251886,-0.218803 0.0511733,-0.0227402 0.104587,-0.022252 0.147551,-0.042567 0.0594489,-0.0281103 0.0923859,-0.00272441 0.135591,0.00873623 0.0744174,0.0247874 0.148835,0.0495748 0.223252,0.0743623 0.117311,0.0408859 0.208197,0.129969 0.279579,0.228134 -1.5748e-005,1.1811e-005 -2.75591e-005,1.96851e-005 -3.93701e-005,2.75591e-005 0.0874095,0.0633583 0.137311,0.141721 0.170169,0.226898 0.00743308,0.0107244 0.0652953,0.0535276 0.0762796,0.0691378 0.0317205,0.0450827 0.056567,0.132185 0.0659528,0.189351 0.0626811,0.0154252 0.0675473,0.0620237 0.0732048,0.0691497 0.0701536,0.0396536 0.0812875,0.107394 0.033378,0.203217 -0.0115669,-0.00577953 -0.0231339,-0.011563 -0.0347008,-0.0173465 0.0283347,0.0878426 0.0566693,0.175681 0.0850079,0.26352 0.000161417,0.00368898 0.000322835,0.00737796 0.000488189,0.0110669 -0.0113347,0.0478544 -0.0531851,0.0982835 -0.034004,0.143563 0.00948032,0.022378 0.00465748,0.0427244 -0.0144488,0.0610158 -0.0251575,0.0240827 -0.0160551,0.0677953 -0.0240827,0.101689 0.0388032,0.143862 0.0743701,0.294744 0.031874,0.396166 -0.00333858,-0.000582678 -0.00667323,-0.00116536 -0.0100079,-0.00174803 0.00976772,0.0197874 0.0538111,0.107169 0.0552481,0.115819 0.0108425,0.0203307 0.0185158,0.0427835 0.004,0.0800158 0.0103937,0.00719686 0.0207914,0.0143937 0.031189,0.0215906 0.0679252,0.0058189 0.127992,0.0236024 0.184268,0.0263071 0.0871851,0.00419292 0.153835,0.0257677 0.202067,0.0627205 0.0199606,0.0152913 0.0356418,0.035937 0.057063,0.0436299 0.0415394,-0.00269685 0.0699371,0.0155866 0.0916182,0.0399803 0.0308386,0.0165473 0.0550788,0.0336654 0.0742953,0.0510591 0.0500945,0.0453544 0.0660906,0.0926615 0.0759174,0.136957 0.00527953,0.0238071 0.0268229,0.0294961 0.0339961,0.0438307 0.048874,0.00535433 0.0503189,0.0823071 0.0500355,0.15939 -0.000511811,0.139484 0.0514252,0.287307 0.041941,0.457185 -0.0180433,0.323292 -0.000625985,0.406268 0.131012,0.714945 0.0777048,0.182205 0.15541,0.36441 0.233118,0.546615 -0.0616024,0.00893701 -0.121799,0.0137087 -0.184114,0.0125512 -0.0141575,-0.000259843 0.130941,0.195323 0.11652,0.194425 -0.0144213,-0.000897638 -0.188382,-0.198288 -0.203142,-0.199858 -0.0154567,-0.00164173 -0.0311418,-0.00368504 -0.0470748,-0.00612205 -0.324299,-0.0496024 -0.279406,0.0406142 -0.106516,0.286532 -0.164721,-0.158165 -0.193024,-0.288012 -0.157382,-0.370516 -0.0367756,-0.0129803 -0.0739528,-0.024626 -0.11189,-0.0325551 0.105398,0.268508 0.350536,0.663969 0.572115,0.88454 -0.0279685,0.0198819 0.00101969,0.0247992 -0.0310512,0.0608386 -0.0349016,-0.0310197 -0.0687717,-0.048874 -0.101803,-0.0590591 0.000661418,0.00462992 0.00132284,0.00925985 0.00198425,0.0138937 0.027126,0.0207402 0.054252,0.0414843 0.081378,0.0622284 -0.00549607,0.00560237 -0.0109882,0.0112047 -0.0164803,0.0168071 -0.042567,0.0284292 -0.0851339,0.0568583 -0.127701,0.0852914 0.0227638,-0.0280197 0.0455315,-0.0560394 0.0682993,-0.0840591 -0.122756,-0.0188307 -0.245512,-0.0376575 -0.368268,-0.0564843 -0.051441,0.0212087 -0.10139,0.0474528 -0.149732,0.0754331 -0.0524134,0.0303386 -0.158114,0.191449 -0.206602,0.221654 -0.0221024,0.0137677 0.0109606,-0.101189 -0.0111378,-0.0874213 -0.135067,0.0841378 -0.270146,0.168288 -0.405213,0.252425 -0.0547284,0.0340906 -0.0782087,0.0472126 0.00646851,0.0636182 0.0501733,0.00971654 0.0929922,-0.0110984 0.163496,-0.0272402 -0.0489331,0.0530985 -0.112185,0.0733032 -0.0420315,0.117961 0.00110236,-0.00677953 0.00220473,-0.0135591 0.00330709,-0.0203347 0.197173,0.0321103 0.330906,-0.0311693 0.534741,-0.140492 -0.138665,0.135386 -0.301701,0.20613 -0.496347,0.187362 0.0125039,0.0079567 0.0250079,0.0159134 0.0375118,0.023874 0.173811,-0.0148662 0.342146,-0.0187835 0.472162,0.0539607 0.00320866,0.000366142 0.00642126,0.000732284 0.00963386,0.00109843 0.00177953,0.00266929 0.00355906,0.00534252 0.00534252,0.00801575 0.0411024,0.0401693 0.0787914,0.090567 0.108984,0.163473 0.00278347,0.00417323 0.00556693,0.00834646 0.0083504,0.0125236 -0.00582284,0.0073189 -0.0116417,0.0146378 -0.0174606,0.0219606 0.00719686,0.00575197 0.0143937,0.0115039 0.0215906,0.0172559 -0.0247914,0.0628465 -0.0508347,0.123169 -0.107748,0.169244 -0.0562402,0.0455118 -0.0584213,0.0486221 -0.122689,0.0266024 -0.0487992,-0.0167284 -0.109244,-0.0373032 -0.117276,-0.0385985 -0.159177,0.000370079 -0.319795,-0.00930709 -0.483603,-0.041437 -0.0691575,-0.013563 -0.230721,0.044752 -0.301166,0.0222284 0.00184252,-0.0137244 0.00141732,-0.136075 0.00326378,-0.149799 0.243858,0.121776 0.557256,0.0962953 0.788847,0.128083 0.0178032,0.0033189 0.127413,0.0421181 0.153555,0.0508307 0.050567,-0.0373071 0.0847756,-0.0800709 0.102626,-0.12828 -0.0665119,0.0382599 -0.118886,0.00237402 -0.161709,-0.0734882 0.0135158,-0.0443504 -0.0659764,-0.0599882 -0.140681,-0.0606654 0.0479292,-0.0385394 0.166378,-0.0389055 0.176815,0.0403189 0.0487244,0.0863308 0.0914449,0.0879213 0.154114,0.0135827 -0.0173976,-0.0523465 -0.0450197,-0.10128 -0.0951418,-0.142713 -0.143449,-0.0668977 -0.301898,-0.0737835 -0.467166,-0.0533898 -0.00293307,-0.00105906 -0.00586221,-0.00211811 -0.00879134,-0.00317323 -0.0999016,-0.0635748 -0.199803,-0.12715 -0.299701,-0.190721 0.123201,-0.193351 0.638886,-0.462508 0.861091,-0.567827 0.151693,-0.0689922 0.299453,-0.10352 0.451697,-0.00277559 -0.188528,-0.172862 -0.323122,-0.319929 -0.456272,-0.650182 -0.024878,0.0689961 -0.0223622,0.12578 -0.034811,0.230827 0.0601221,-0.00501181 0.0718229,-0.00504331 0.122161,0.023437 -0.134165,0.0111693 -0.122772,-0.00644095 -0.145732,0.141799 -0.04713,0.311894 0.0692481,-0.0576772 0.226504,-0.058563 -0.167677,0.187673 -0.304331,0.374646 -0.487733,0.504095 -0.183831,0.129752 -0.389831,0.218055 -0.622126,0.257114 -0.00227953,-0.0136732 -0.00455906,-0.0273465 -0.00683465,-0.0410158 0.225835,-0.0379725 0.426181,-0.12387 0.60504,-0.250114 0.202551,-0.142965 0.20813,-0.185339 0.244134,-0.417862 0.00735827,-0.200516 0.0577363,-0.401044 -0.0031063,-0.638619 -0.00402756,-0.0146575 -0.00805512,-0.0293189 -0.0120787,-0.0439803 0.0313977,0.0151299 0.0511378,0.0205 0.0854213,0.0256496 0.101063,0.015189 0.186197,0.0413465 0.255524,0.0788465 0.114118,0.0617323 0.224256,0.0679922 0.356024,0.0531418 -0.119043,-0.214055 -0.225819,-0.419922 -0.279398,-0.633977 -0.0813426,-0.143201 -0.120685,-0.23011 -0.0813701,-0.308512 0.0246181,-0.0491024 3.54331e-005,-0.116402 0.00833071,-0.202622 0.018378,-0.190929 -0.0263032,-0.356587 -0.0283819,-0.508449 -0.000885827,-0.0646103 -0.016752,-0.120453 -0.0601339,-0.161181 -0.013378,-0.0267402 -0.0282323,-0.052378 -0.0445866,-0.0768859 -0.0158543,0.0747441 -0.0248622,0.168658 -0.100784,0.310339 0.0149095,-0.0702993 0.0280197,-0.147791 0.0417205,-0.222937 -0.0152953,-0.0467835 -0.05363,-0.0856772 -0.105134,-0.102843 0.090315,-0.021874 0.0983072,0.0165236 0.112004,0.0657323 0.00476772,-0.0253189 0.00965355,-0.0501811 0.014748,-0.0741969 0.00817323,0.00173622 0.0163465,0.00346851 0.0245197,0.00520079 -0.0250551,-0.0766812 -0.0695906,-0.123429 -0.134055,-0.139882 -0.0292323,-0.00746063 -0.0490473,-0.0360827 -0.0759882,-0.0523071 -0.0135827,0.0218347 -0.0236496,0.044626 -0.0229213,0.070315 0.00084252,0.0296299 0.0155512,0.0651536 0.0545,0.110941 0.00201575,0.00237402 0.00403544,0.00474803 0.00605512,0.00712205 -0.000338583,0.00307874 -0.000677166,0.00615355 -0.00101181,0.00922835 -0.0108583,0.0988505 -0.0217165,0.197701 -0.0325748,0.296547 0.034067,-0.151008 0.062567,-0.253788 0.0778347,-0.251185 -0.0161732,0.0940552 -0.113106,0.723662 -0.19174,1.13908 0.0591733,-0.0331969 0.152646,-0.0801497 0.209791,-0.0886693 -0.037252,0.0208937 -0.189138,0.0978229 -0.171555,0.140449 0.099382,-0.0513071 0.234685,-0.122579 0.333646,-0.173658 -0.143449,0.138488 -0.225953,0.167351 -0.285437,0.195347 -0.0707245,0.0192323 0.343697,0.420752 0.367524,0.418689 -0.00683071,0.0305748 -0.287756,-0.218957 -0.384866,-0.365512 0.0109331,0.0930788 0.0673662,0.216488 0.127658,0.342473 -0.0762126,-0.120461 -0.145787,-0.258634 -0.20565,-0.422685 -0.0368701,0.190362 -0.0686969,0.32526 -0.08463,0.32254 -0.26537,0.43267 -0.533863,0.862784 -1.09651,1.0512 -0.0043937,-0.0131299 -0.00878741,-0.0262599 -0.0131811,-0.0393859 0.615241,-0.20602 0.911087,-0.628209 1.07866,-1.12648 0.0360118,-0.107091 0.141162,-0.694453 0.22287,-1.0716 0.00194095,-0.120906 0.00388189,-0.241811 0.00582678,-0.362721 -0.0416418,-0.0509882 -0.0576536,-0.0933071 -0.0587087,-0.130551 -0.000984253,-0.0346693 0.0106811,-0.0635 0.0267835,-0.0902638 -0.0755237,-0.0284764 -0.159634,-0.0722874 -0.251858,-0.0366299 -0.0188071,0.00727166 -0.0282914,-0.034811 -0.0381221,-0.0519607 -0.00864961,-0.0150906 -0.0468977,-0.00825985 -0.0464961,-0.00783071 0.0214173,0.037063 0.103461,0.053437 0.0802835,0.267292 -0.00307874,-0.0422048 -0.0314843,-0.0909686 -0.0419567,-0.128945 -0.0299725,-0.108705 -0.0173976,-0.0550158 -0.0358425,0.00594882 -0.0166063,0.0548819 -0.0543465,0.113528 -0.113197,0.175929 -0.0377599,0.0376378 -0.104543,0.0851615 -0.159024,0.121638 -0.0220984,0.0147953 -0.183878,0.119953 -0.20904,0.122126 -0.00539764,-0.000299213 -0.0107835,-0.000637796 -0.0161457,-0.00102362 -0.0538701,0.0873347 -0.105807,0.173024 -0.157736,0.258705 -0.0806378,0.117843 -0.169563,0.226299 -0.219343,0.360335 -0.0427677,0.115169 -0.151118,0.241937 -0.228228,0.365138 -0.0401378,0.0641221 -0.0805512,0.118933 -0.130685,0.162654 -0.140673,0.13065 -0.250177,0.282484 -0.365229,0.426733 -0.0407284,0.051063 -0.0772126,0.109284 -0.133122,0.142725 -0.0879804,0.0526181 -0.31041,0.269563 -0.559741,0.318473 0.218866,-0.0903701 0.382992,-0.264114 0.524,-0.342433 0.0548229,-0.0304488 0.089126,-0.088063 0.128354,-0.137244 0.11902,-0.149225 0.234043,-0.301008 0.367421,-0.4265 0.11087,-0.104315 0.170032,-0.254331 0.258736,-0.380264 -0.0237166,0.0111536 -0.0474292,0.0223071 -0.0711418,0.0334607 -0.0255788,0.0204134 -0.0455748,0.0479252 -0.0608465,0.0813898 -0.0157205,0.0344567 -0.0265118,0.0753977 -0.0332677,0.121587 -0.0137795,-0.00111417 -0.0275591,-0.00222835 -0.0413386,-0.00333858 0.000779528,-0.0464764 -0.00111417,-0.0901457 -0.00910631,-0.12735 -0.00401181,-0.0186654 -0.0467953,-0.062189 -0.042567,-0.0668347 -0.150602,0.00933465 -0.296626,-0.0570945 -0.377055,-0.0949213 -0.0838268,-0.0328504 -0.124398,-0.104291 -0.17339,-0.180776 -0.0549764,-0.0919764 0.0408111,0.140681 0.0136457,0.09363 -0.0936969,-0.16228 -0.11202,-0.0542441 -0.112658,0.0620748 -0.000543307,0.099504 0.119445,0.384595 0.164244,0.4945zm-0.262626 -1.54954c-0.0398425,0.0464843 -0.134016,0.147299 -0.173858,0.19378 -0.0561339,-0.0480276 0.152118,-0.179402 0.173858,-0.19378zm0.863217 -1.77786c0.0303229,-0.0391103 0.0500433,-0.105402 0.0995749,-0.109784 0.0246339,-0.0021811 0.0802678,-0.0459607 0.0729567,-0.0638347 -0.0166654,-0.0407481 0.0324646,-0.0140197 0.076752,-0.0327559 -0.00449213,0.0103228 -0.0630827,0.0227126 -0.0436496,0.0443898 0.0164961,0.0184016 -0.00648426,0.0362677 -0.065004,0.0523465 -0.0734174,0.0201693 -0.118937,0.102276 -0.114102,0.141701 -0.00884253,-0.010689 -0.0176851,-0.021378 -0.0265276,-0.032063zm0.478111 0.834343c-0.0154843,0 -0.0280433,0.012563 -0.0280433,0.0280433 0,0.0154803 0.0053189,0.0135512 0.0207992,0.0135512 0.0154803,0 0.0171732,0.00555118 0.0171732,-0.00992914 0,-0.0154803 0.00555118,-0.0316654 -0.00992914,-0.0316654zm0.908253 1.49445c-0.0137244,-0.00173228 -0.0274488,-0.00346851 -0.0411733,-0.00520473 0.0266299,-0.206602 0.0334292,-0.419886 -0.0360118,-0.619477 0.130642,0.139791 0.0885473,0.53654 0.0771851,0.624682zm-1.45618 -1.37392c-0.0365827,-0.0590945 -0.0175512,-0.0597993 0.0217244,-0.116925 -0.00925591,-0.0185788 -0.0168386,-0.0378937 -0.0212559,-0.0586181 -0.0632717,0.0369213 -0.0757717,0.143362 -0.000468504,0.175543zm0.587752 -0.276437c0.0776378,0.0193937 0.159768,0.0705434 0.193051,0.197425 -0.0125866,0.00580709 -0.0360394,0.00255906 -0.0486221,0.00836221 -0.0414961,-0.0897638 -0.0884686,-0.148925 -0.154524,-0.165425 -0.0683386,-0.0170669 -0.165547,-0.0197244 -0.244791,-0.0111221 0.093752,-0.0602048 0.192665,-0.0447756 0.254886,-0.0292402zm0.378579 0.0942875c-0.0181102,0.0148347 -0.0319173,0.0315827 -0.0423111,0.0498347 0.0440433,-0.0324095 0.086626,-0.0461929 0.154717,-0.0472874 0.00467323,-0.0197402 0.0093504,-0.0394803 0.0140276,-0.0592244 -0.0560433,0.0131299 -0.0969607,0.0325355 -0.126433,0.0566772zm-0.252642 0.144303c-0.169158,0.0820237 -0.169236,0.0562441 -0.313725,-0.0251929 -0.00677166,-0.00381496 -0.0135433,-0.00763386 -0.020311,-0.0114528 0.0444213,-0.0609489 0.0826339,-0.0953505 0.144449,-0.104748 0.083441,-0.012685 0.18978,0.0447992 0.201142,0.119587 0.00076378,0.0050315 0.00152756,0.010063 0.00229528,0.0150945 -0.00461811,0.00224016 -0.00923623,0.00447638 -0.0138504,0.0067126zm-0.254658 -0.039189c0.0346614,0.0199803 0.0584646,0.0337047 0.0799646,0.0405945 -0.0240945,-0.0235827 -0.0710788,-0.0616969 -0.0894449,-0.07713 0.0481851,-0.0541536 0.208634,-0.0459567 0.24104,0.0259331 -0.0368701,0.000346457 -0.0975316,0.0357008 -0.104488,0.0550748 0.0358386,-0.00546851 0.108976,-0.0205 0.0675237,-0.0650709 -0.0558189,-0.0600197 -0.157984,-0.0494725 -0.212032,0.0105669 0.00618504,0.00354331 0.0119449,0.00686615 0.017437,0.0100315zm0.379658 0.383449c0.128323,0.0583937 0.127744,0.235504 0.201914,0.221559 0.0657559,-0.0247441 0.0857953,0.0502323 0.0759095,0.0858741 -0.00596851,0.0125354 -0.0303268,-0.0260158 -0.0362953,-0.0134843 -0.081878,-0.0389843 -0.0869961,-0.0370158 -0.134335,-0.110067 0.00046063,0.0535079 -0.0982796,0.0705197 -0.124646,0.0466536 -0.0346811,0.0199882 -0.0849764,0.0274449 -0.113063,-0.0222047 -0.00607087,-0.0107362 -0.0204764,-0.0120591 -0.0270394,-0.0200039 0.00477166,-0.0130197 0.00954725,-0.0260394 0.0143228,-0.039063 0.0340709,0.0125551 0.0873426,0.0396024 0.12578,0.0396024 0.0320906,0 0.0748662,-0.027504 0.101827,-0.040189 -0.00790552,-0.0121969 -0.015811,-0.0243937 -0.0237166,-0.0365945 -0.0673544,0.00264173 -0.134705,0.00528347 -0.202055,0.0079252 -0.000173228,-0.00434252 -0.00034252,-0.00868504 -0.000511811,-0.0130276 -0.00449607,0.00459843 -0.00896851,0.00928741 -0.0134252,0.0140236 -0.00534646,0.0291221 -0.0216181,0.0575079 -0.044315,0.0854371 -0.023,0.0282992 -0.0619725,0.050189 -0.075063,0.0949725 -0.07013,-0.0548229 0.0026063,-0.0716811 0.0428347,-0.121177 0.0226063,-0.027815 0.0275355,-0.0525906 0.0417244,-0.0828701 0.0195236,-0.0209449 0.0395158,-0.0412874 0.0613229,-0.0591693 0.0448583,-0.0367717 0.0657126,-0.0636024 0.088189,-0.00547638 -0.0260197,0.0100827 -0.0491496,0.0262835 -0.070067,0.0445158 0.0483622,-0.0018937 0.0967245,-0.00379134 0.145091,-0.00568898 -0.0101299,-0.015626 -0.0284331,-0.0128622 -0.0385591,-0.0284921 0.0116063,-0.00753937 -0.00743308,-0.0355118 0.00417717,-0.0430551zm-0.6218 -0.665264c0.0540866,-0.0450709 0.0743189,-0.0722126 0.198331,-0.129662 -0.0572678,0.0477244 -0.114536,0.113839 -0.171803,0.161559 -0.00884253,-0.0106299 -0.0176851,-0.0212638 -0.0265276,-0.0318977zm0.556874 0.305016c0.0161378,0.0591693 0.0151024,0.11637 -0.0194567,0.164756 0.0121181,-0.0837127 1.96851e-005,-0.0783032 -0.0205827,-0.15385 0.0133465,-0.00363386 0.0266929,-0.00726772 0.0400394,-0.0109055zm-0.669843 0.910701c-0.084563,-0.0989686 -0.215008,-0.174913 -0.368949,-0.217925 0.282685,-0.0605355 0.310264,-0.126138 0.309528,-0.281248 0.0391418,0.142413 0.145512,0.169425 0.229288,0.146583 -0.0997875,0.114886 -0.13498,0.203016 -0.133327,0.338839 -0.0121811,0.00458662 -0.0243622,0.0091693 -0.0365394,0.013752zm-0.789252 0.00597244c0.0386693,-0.0256654 0.0774016,-0.0455591 0.116165,-0.0612402 -3.93701e-006,-7.87402e-006 -7.87402e-006,-1.5748e-005 -1.1811e-005,-2.75591e-005 0.0568662,-0.023004 0.0983898,-0.0265315 0.142969,-0.0151378 -0.0777638,0.0176732 -0.167689,0.0656182 -0.236177,0.111075 -0.00764961,-0.0115551 -0.0152992,-0.0231103 -0.0229449,-0.0346693zm0.925709 0.550217c0.0287874,-0.0246732 0.0601378,-0.0470079 0.0924843,-0.0641772 0.00650788,0.0122599 0.0130158,0.0245197 0.0195276,0.0367796 -0.0557756,0.0295984 -0.0275,0.0198425 -0.112012,0.0273977zm-0.0262323 -0.131595c0.0464134,-0.00678741 0.0928268,-0.0135709 0.139244,-0.0203543 -0.0404488,0.019315 -0.0808938,0.0386339 -0.121339,0.0579528 -0.00596851,-0.0125354 -0.011937,-0.0250669 -0.0179055,-0.0375984zm0.658363 -0.454752c0.00633859,0.0253662 0.0126811,0.0507323 0.0190236,0.0760945 -0.0134567,0.00336614 -0.0197756,0.0186221 -0.0332284,0.0219843 0.0350079,-0.0295591 -0.0450355,-0.0832599 0.0142047,-0.0980788zm0.0313189 -0.0622481c0.0012874,0.00847638 0.00287402,0.0164016 0.00475591,0.0237756 0.00934646,-0.0561536 0.0458032,-0.101114 0.0981615,-0.135362 -0.0440118,-0.0602087 -0.0123858,-0.0467048 -0.0932442,-0.108016 0.0742048,0.0158347 0.11374,0.0603229 0.151335,0.121752 -0.0741378,0.0429134 -0.115823,0.0643859 -0.145717,0.151189 0.00228347,0.00468504 0.00476378,0.00900001 0.00744882,0.012941 0.00990552,0.0145473 0.0227323,0.0241024 0.0384646,0.0286378 -0.00379922,0.0132913 -0.00759843,0.0265827 -0.0113937,0.039874 -0.0254803,-0.00734646 -0.0459567,-0.0223819 -0.0614095,-0.0450788 -0.0144882,-0.0212795 -0.0243504,-0.0491339 -0.0295748,-0.0835316 0.0137244,-0.00205906 0.0274488,-0.00411811 0.0411733,-0.00618111zm-0.35767 0.126366c-0.0189134,0.0545552 -0.0174331,0.109185 0.00443307,0.163858 -0.0609449,-0.0725434 -0.0615906,-0.125626 -0.0436536,-0.17737 0.0130709,0.00450394 0.0261457,0.00900788 0.0392205,0.0135118zm-0.00996064 -0.0512323c-0.0509252,0.049067 -0.090752,0.107658 -0.11361,0.174803 -0.0131299,-0.00444882 -0.0262599,-0.00889764 -0.0393859,-0.0133465 0.0249488,-0.0732993 0.0685788,-0.137831 0.124185,-0.191402 0.00960237,0.00998426 0.0192047,0.0199646 0.028811,0.0299449zm0.0177914 -0.100583c-0.0142402,0.0157126 -0.027315,0.032626 -0.0380748,0.0509252 -0.00107874,-0.0497402 -0.00887796,-0.0655591 0.034441,-0.106484 0.00466142,0.0049567 0.00932284,0.00991339 0.0139843,0.0148662 0.0120473,-0.0370079 0.064126,-0.146402 0.119024,-0.17589 0.0307914,-0.0165394 0.00731103,0.0517678 0.0884882,0.0453977 -0.0318504,0.0227441 -0.133331,0.0645788 -0.154354,0.0925985 0.040752,0.00901182 0.005063,0.0598111 -0.0541418,0.202524 0.0134173,-0.0607323 0.0268347,-0.121465 0.040252,-0.182197 -0.0260945,0.0420906 -0.0433425,0.0947205 -0.054689,0.168244 -0.00293701,-0.038126 -0.00150394,-0.0750552 0.00507087,-0.109984zm-0.0262914 -0.0416221c-0.0300197,0.0180079 -0.0549725,0.0428859 -0.0704174,0.0745197 -0.0124803,-0.00607481 -0.0249567,-0.0121496 -0.0374331,-0.0182284 0.025126,-0.0514646 0.0380788,-0.0498937 0.10785,-0.0562914zm-0.222728 0.319516c0.00967717,0.00591339 0.0188268,0.0117284 0.0275118,0.017378 -0.00281103,-0.00319292 -0.0056063,-0.00644095 -0.00837008,-0.00974016 -0.00662205,-0.00248425 -0.0129961,-0.00503544 -0.0191417,-0.0076378zm0.674717 -0.154606c-0.0567874,-0.058563 0.00410236,-0.133595 0.0627717,-0.141358 -0.0285945,0.0266339 -0.088815,0.0830827 -0.0416457,0.120697 -0.00704331,0.00688977 -0.0140866,0.0137756 -0.021126,0.0206614zm-0.189784 -1.75708c0.0219055,0.00594489 0.0579567,0.0201378 0.0731772,0.0325945 0.0315945,0.0258543 0.0464685,0.0258307 0.0543347,0.0638465 -0.0274173,-0.0345355 -0.105445,-0.0634804 -0.127512,-0.096441zm-0.159193 0.257949c-0.0194961,-0.0200945 -0.0356496,-0.0402284 -0.0495,-0.0603741 -0.0168228,-0.0244685 -0.030126,-0.048752 -0.0418425,-0.0729331 -0.014189,-0.0201457 -0.0302638,-0.0319725 -0.0477166,-0.0376969 -0.017441,-0.00572835 -0.0369685,-0.00573229 -0.0578189,-0.00204725 0.0210118,0.0236811 0.0321693,0.0527048 0.0256536,0.0848268 -0.000137795,0.0176339 0.00862599,0.0312481 0.0239134,0.0419016 0.0190748,0.0132953 0.0476221,0.0225984 0.0820788,0.0294016 -0.000933071,0.00477953 -0.00186614,0.00955906 -0.00279921,0.0143347 0.0141378,0.00122047 0.0281929,0.00197638 0.0421772,0.00234252 0.00863386,0.00022441 0.017252,0.000299213 0.0258543,0.000244095zm0.375162 2.02256c0.046004,-0.0930276 0.0920079,-0.186059 0.138012,-0.279091 0.0124213,0.00613386 0.0248425,0.0122638 0.0372677,0.0183937 -0.0339213,0.0685985 -0.101252,0.160732 -0.17528,0.260697zm0.443685 -0.609685c0.0636378,0.0611575 0.0748308,0.123354 0.126516,0.210221 -0.013185,0.00422835 -0.0116772,0.0170315 -0.0248583,0.0212638 -0.0179449,-0.0557008 -0.0294725,-0.0881418 -0.101658,-0.231484zm-1.12717 -0.832654c-0.0622323,0.00759056 -0.126028,0.058441 -0.157815,0.114862 -0.0531811,-0.0298268 0.124484,-0.153386 0.128508,-0.139969 -0.00127953,-0.0159961 -0.00270866,-0.0321024 -0.00397244,-0.0482166 -0.0220551,0.0119528 -0.0314803,0.0368662 -0.0997717,0.0849804 0.0335315,-0.0422796 0.0576378,-0.109878 0.0982442,-0.105906 -0.00438189,-0.0660355 -0.00381496,-0.131524 0.0230512,-0.189673 -0.0135394,0.0407756 -0.00678741,0.128244 0.00133858,0.199843 0.0013189,0.000933071 0.00264961,0.00191732 0.004,0.00299213 -0.00124016,0.000161417 -0.00243701,0.000330709 -0.00360236,0.000515748 0.00370866,0.032311 0.00764567,0.06113 0.0100197,0.0805709zm-0.158791 -0.788989c0.0108032,0.00159843 0.0240709,0.00244488 0.0400433,0.00247638 0,0.00364173 0,0.00728347 0,0.0109213 0.0302323,-0.0425591 0.0670355,-0.0577717 0.0978741,-0.0672402 -0.0102165,0.000877953 -0.0201378,0.00222441 -0.0297284,0.00409055 -0.0384961,0.00749213 -0.076315,0.0226654 -0.108189,0.049752zm0.0135906 -0.26863c-0.0872993,0.0460866 -0.155205,0.148252 -0.15598,0.234701 -0.0132362,-0.00412599 -0.0264725,-0.00824804 -0.0397087,-0.0123701 0.0387874,-0.123126 0.0878623,-0.163067 0.195689,-0.222331zm0.761355 0.843221c-0.000885827,-0.0288189 -0.0267914,-0.0438504 -0.0562638,-0.0359055 0.0341063,-0.0494016 0.0796733,0.0187914 0.0562638,0.0359055zm-0.889016 0.877977c-0.0940079,0.0616851 -0.0394567,0.0217284 -0.0154173,0.116236 -0.0323937,-0.0303701 -0.0624134,-0.0632402 -0.0948544,-0.0936497 0.00736615,-0.00483465 0.0147323,-0.0096693 0.0220984,-0.0145039 0.0483386,-0.0317205 0.0731536,-0.0121496 0.0881733,-0.00808268zm0.0355276 0.0447166c0.0136693,0.00217323 0.0273425,0.00434252 0.0410158,0.00651182 -0.0323544,0.0343386 -0.0391063,0.0712363 -0.0202441,0.110697 0.0147047,-0.0741654 0.0529489,-0.145662 0.114744,-0.21448 -0.0301614,0.00127165 -0.0589804,-0.00213386 -0.0871654,-0.00981497 -0.0248701,-0.00677953 -0.0124843,0.103654 -0.0368819,0.0904686 -0.0106142,0.0130906 -0.0589055,-0.0952914 -0.0711654,-0.0839764 -0.0531457,0.0490355 -0.12048,0.0820512 -0.190591,0.104547 0.0454685,0.0109252 0.0882717,0.0254961 0.128067,0.0441693 0.0516733,0.024248 0.0982245,0.0553622 0.138906,0.094319 0.00092126,-0.00733859 0.00206693,-0.0146496 0.00344488,-0.0219331 -0.0656851,-0.011752 -0.0299213,-0.0595827 -0.0201299,-0.120508zm-0.113697 -0.354555c-0.114146,0.0639528 -0.130299,0.111536 -0.194158,0.143465 -0.037063,-0.0741733 0.130299,-0.111539 0.194158,-0.143465zm-0.0213504 -0.06913c-0.0733032,0.055437 -0.0876969,0.0968977 -0.147366,0.130374 -0.0390985,-0.0697363 0.0877087,-0.0969134 0.147366,-0.130374zm-0.0251103 -0.0691339c-0.0769961,0.0774804 -0.0572402,0.083189 -0.113508,0.117291 -0.0394843,-0.0652126 0.0572559,-0.0831969 0.113508,-0.117291zm0.0420985 -0.788567c0.0206614,-0.0297008 0.029063,-0.0307953 0.0497244,-0.0605 0.0113937,0.00792126 0.0227874,0.0158425 0.0341811,0.0237638 -0.0217284,0.0312323 -0.0787205,0.136992 -0.13437,0.0982993 -0.00301181,0.0136024 0.00650394,-0.0261614 -0.00524803,-0.0287559 0.00412992,-0.0185827 0.00825985,-0.0371654 0.0123898,-0.055752 -0.027437,0.0422008 -0.0200591,0.0480079 -0.0627166,0.0202835 0.0245984,-0.0378465 0.0783386,-0.113878 0.194358,-0.222811 -0.056,0.0861536 -0.0664685,0.127099 -0.088319,0.225473zm0.131787 0.48367c-0.004563,0.00490158 -0.00912599,0.00980316 -0.013685,0.0147008 -0.0149213,-0.0103819 -0.0297166,-0.0208386 -0.0442638,-0.0314331 0.00309449,0.0384016 0.00857481,0.0676457 0.0284882,0.115146 -0.00557874,-0.00897638 -0.0193307,-0.02 -0.0249055,-0.0289803 -0.0330748,0.0481024 -0.00664961,0.0587481 0.0234134,0.107311 -0.00322835,0.00199606 -0.0064567,0.00398819 -0.00968505,0.00598032 0.000385827,0.00155118 0.000775591,0.00310236 0.00116536,0.00465355 -0.160232,0.0406418 -0.188189,-0.189508 -0.0810749,-0.252331 -0.00287795,-0.00237402 -0.0057441,-0.00475985 -0.00858268,-0.00715748 -0.0543859,0.0106024 -0.0673583,0.0579567 -0.0638622,0.108484 0.00560237,0.0805158 0.0112126,0.161047 0.0939056,0.247315 0.0363662,0.040004 0.0408662,0.057193 0.0632638,-0.0200079 0.0115315,0.00334646 0.0230669,0.00668898 0.0346024,0.0100315 0.00752363,-0.063189 0.0150433,-0.126386 0.0225669,-0.189571 -0.0133937,-0.0352205 -0.0205079,-0.0632678 -0.0213465,-0.0841418zm-0.218524 -0.232532c0.0408544,0.0518819 0.0923741,0.101984 0.150551,0.150976 0.00193307,-0.000374016 0.00387008,-0.000748032 0.00580709,-0.00112598 0.000137795,0.00211417 0.000275591,0.00422835 0.000417323,0.00634252 0.0208071,0.0173583 0.042441,0.0345748 0.0647126,0.051689 0.00503544,-0.0141024 0.016311,-0.0210748 0.0338268,-0.0209173 -0.0365866,-0.0364607 -0.0578111,-0.0766772 -0.0688268,-0.119319 -0.00604725,0.00679528 -0.0120945,0.0135906 -0.0181378,0.0203819 -0.101658,-0.0333032 -0.149992,-0.0879371 -0.180059,-0.149878 0.00101969,0.0245984 0.00143701,0.0489331 0.00132284,0.0730079 0.00346457,-0.00371654 0.0069252,-0.00743701 0.0103858,-0.0111575zm0.327209 -1.13608c-0.0381851,-0.025874 -0.0981615,-0.0401733 -0.147244,-0.00611811 -0.0054252,-0.0601378 0.139677,-0.0777323 0.147244,0.00611811zm-0.113847 0.0991812c-0.00644882,-0.0533622 -0.0401418,-0.0685788 -0.101079,-0.0456496 0.0213386,-0.0473583 0.0622244,-0.0140945 0.0998623,-0.0351969 0.121165,-0.0679292 0.0684213,0.0100748 0.0440315,0.0545433 -0.00569292,0.0126378 -0.0113898,0.0252795 -0.0170866,0.0379213 -0.00338189,-0.00152756 -0.00676378,-0.00305512 -0.0101457,-0.00458268 0.00232284,0.0101417 0.00464567,0.0202835 0.00696457,0.0304292 -0.0440709,0.00457087 -0.0840473,0.0190709 -0.12526,0.00155906 -0.0312717,-0.0132874 -0.0623504,0.0235748 -0.0874489,0.0475276 -0.0213937,-0.0935434 0.12289,-0.0989843 0.190162,-0.0865512zm-0.044874 0.147256c-0.0880827,-0.0429016 -0.122839,0.0192559 -0.169051,0.015689 -0.0254331,-0.00196063 -0.0397284,0.034937 -0.0559292,0.0620315 -0.0269331,-0.080815 0.0234173,-0.142717 0.0947717,-0.124516 0.0539961,0.0137717 0.113016,-0.00312205 0.130209,0.0467953zm-0.0350591 0.0482166c-0.030378,0.0458465 -0.0236181,0.0810788 0.00322047,0.110575 0.0192244,-0.0433504 0.0423819,-0.082252 0.0694764,-0.116705 -0.0637559,0.00599607 0.125248,-0.271587 0.190307,-0.304815 -0.0519016,0.0884646 -0.103799,0.176929 -0.155697,0.265394 0.00901182,-0.00919292 0.0183662,-0.0180039 0.0280788,-0.0264095 0.088626,-0.0978032 0.214701,-0.141457 0.378209,-0.130976 -0.041504,-0.0345473 -0.0878544,-0.0628622 -0.140748,-0.082693 -0.0730355,-0.0243425 -0.146067,-0.0486851 -0.219099,-0.0730315 -0.0849567,-0.0204528 -0.17013,-0.00999213 -0.255492,0.0313937 -0.000354331,0.000165354 -0.000704725,0.000326772 -0.00105512,0.000488189 -0.0709095,0.0296221 -0.235169,0.148217 -0.176,0.117036 0.150386,-0.079252 0.247461,-0.125957 -0.0368229,0.0486733 -0.0104488,0.00641733 -0.0123858,0.0212677 -0.0177244,0.0325551 -0.00155118,0.00501575 -0.0084567,0.0179488 -0.00438977,0.0148858 0.188063,-0.141563 0.184024,-0.123177 -0.0121929,0.0552363 -0.0148701,0.0135197 -0.0186536,0.0687087 -0.00477953,0.0569804 0.220555,-0.186421 0.222839,-0.164354 0.00657874,0.0664134 -0.0371811,0.0396772 0.0264095,0.199433 0.0366575,0.133504 0.0514134,-0.330799 0.035941,0.0331536 0.0559174,0.0494607 0.0332953,0.0271811 0.0685867,0.0535945 0.097193,0.0778347 0.0917717,0.0777835 0.0246693,0.160693 -0.0052441,0.271811 0.00866536,0.0531811 0.0142323,0.105358 0.0171929,0.156449 0.00694882,-0.00780315 0.0138937,-0.0156063 0.0208386,-0.0234095 0.0388229,0.0840355 0.097252,0.138658 0.175288,0.163862 -0.0134567,-0.066193 -0.00429922,-0.137744 0.00889371,-0.209886 -0.0190236,0.0347402 -0.0380473,0.0694804 -0.0570709,0.104221 -0.0121536,-0.00661811 -0.0243071,-0.0132362 -0.0364567,-0.0198583 0.0313583,-0.0572678 0.0811103,-0.077756 0.0818229,-0.202453 0.00717323,0.00390945 0.018626,0.0185079 0.0293071,0.0311732 0.0191457,-0.057752 0.0552244,-0.0893111 0.105642,-0.0986457 0.0213347,-0.00394882 0.0451575,-0.0039252 0.0710945,0.00064567 0.0174567,0.00307874 0.117791,-0.0767756 0.102736,-0.0603229 -0.0162402,0.017748 -0.0108347,0.087752 0.00816536,0.0955079 -3.93701e-006,7.87402e-006 -7.87402e-006,1.5748e-005 -7.87402e-006,1.96851e-005 0.0227008,0.00961812 0.0450945,0.0175158 0.0672205,0.0239331 -0.0180866,-0.0174961 -0.0277756,-0.0394252 -0.0267244,-0.067 0.000161417,-0.00124803 0.000322835,-0.00249606 0.000488189,-0.0037441 0.00341339,-0.0152717 -3.93701e-005,-0.0281063 -0.00741339,-0.0395355 -0.0143583,-0.0222402 -0.0272087,-0.058189 -0.0200984,-0.0666496 0.00426772,-0.00507481 0.0157244,-0.00026378 0.0383622,0.0233465 0.0674095,-0.0492835 0.12135,-0.0122402 0.14513,0.0223386 0.00053937,0.000925197 0.00108268,0.00184646 0.00162599,0.00276772 0.0111181,0.0230591 0.0236221,0.0460473 0.0392756,0.068815 0.0668465,0.097252 0.158433,0.0859292 0.0724764,-4.33071e-005 -0.054252,-0.054252 -0.125256,-0.142539 0.00488189,-0.0501339 -0.00808662,-0.0231614 -0.0190984,-0.0385315 -0.0324607,-0.0475551 -0.0132087,-0.00891339 -0.0295984,-0.0120787 -0.0484095,-0.0108386 -0.000870079,-0.0138347 -0.00174016,-0.0276693 -0.0026063,-0.041504 0.0278307,-0.00183465 0.0528819,0.00338977 0.0742914,0.0178386 0.0210236,0.0141969 0.0376969,0.0368347 0.0489685,0.0698701 -0.0128543,0.00435827 -0.0257087,0.0087126 -0.0385591,0.0130669 0.00833465,0.00601181 0.0161378,0.0125866 0.0233504,0.0197992 0.0602993,0.0603071 0.0148583,0.108756 0.107366,0.0963898 0.00306299,0.000299213 0.00612993,0.000598426 0.00919686,0.000893701 0.020189,-0.000933071 0.0388307,-0.00128347 0.056,-0.00107087 -0.00276378,-0.0131969 -0.00721654,-0.0255236 -0.0133425,-0.0369607 -0.00888977,-0.0165906 -0.0214725,-0.0315315 -0.0377284,-0.0447874 0.00299213,-0.0102244 0.00598426,-0.0204488 0.00897638,-0.0306772 -0.0579607,-0.0199843 -0.135165,-0.0787796 -0.14141,-0.135807 0.0799095,0.0727953 0.155815,0.0954568 0.231709,0.118106 0.00461418,0.00138189 0.00923229,0.00276378 0.0138504,0.00414567 -0.00396063,0.0132913 -0.00792126,0.0265827 -0.0118819,0.039874 -0.00461811,-0.00138189 -0.00923623,-0.00276378 -0.0138504,-0.00414567 -0.0174606,-0.0052126 -0.0349173,-0.0104213 -0.0524449,-0.0162008 0.0163976,0.0148937 0.0295355,0.0315551 0.0394016,0.0499646 0.00959056,0.0179055 0.016,0.0373701 0.0192165,0.0583741 0.0862127,0.00704725 0.141118,-0.00587796 0.140784,0.0339921 0.00318504,0.00106299 -0.0120158,0.0409488 -0.00882678,0.0420118 -0.000637796,-0.000314961 -0.00127165,-0.000633859 -0.00190551,-0.000952757 -0.0121417,-0.0280827 -0.0142795,-0.0527717 -0.0137874,-0.0740552 0.000822835,-0.0354803 0.00896851,-0.0615158 -0.00965749,-0.0780985 -0.00299606,-0.00149606 -0.00598819,-0.00299213 -0.00898032,-0.00448819 -0.000696851,-0.00324803 -0.0013937,-0.0065 -0.00208662,-0.00975197 -0.00312599,-0.0146024 -0.0520827,0.125484 -0.0609725,0.117583 -0.00912993,-0.00811812 0.0211536,-0.16461 0.005,-0.16676 -0.00522835,-0.000692914 -0.0104528,-0.00138976 -0.0156772,-0.00208662 -0.00581496,-0.0405591 -0.0141102,-0.0830355 -0.025878,-0.118347 -0.00574016,-0.0172284 -0.0279134,-0.0746536 -0.0380709,-0.0836457 0.00114173,0.0080315 0.0227362,0.106055 0.0238819,0.114087 -0.0576378,0.00840158 -0.133134,-0.0695591 -0.184012,-0.0517244 -0.0541851,0.0189921 -0.101595,0.0447559 -0.145811,0.0784292 -0.0552048,-0.0148819 -0.11089,-0.0286929 -0.163583,-0.0369213 0.000338583,0.00455512 0.000677166,0.00911024 0.00101969,0.0136654 -0.100382,0.00774016 -0.208496,0.0384725 -0.259004,0.134008 0.006,-0.022004 0.0131024,-0.0407323 0.0209843,-0.0567599 -0.0221496,-0.000980316 -0.040374,-0.00376378 -0.0550197,-0.00822441 -0.0195433,0.0267087 -0.0348662,0.060626 -0.0439055,0.103429 0.0051063,-0.0429646 0.0159764,-0.0788071 0.030437,-0.108445 -0.0304449,-0.0138071 -0.0394882,-0.0377166 -0.0320394,-0.0699764 0.0133347,-0.057752 0.0707363,-0.106622 0.135221,-0.143248 -0.0595197,0.0603307 -0.0872166,0.120142 -0.094693,0.152524 -0.00234646,0.0101535 0.00162992,0.0182008 0.0134449,0.0237874 0.0367087,-0.0511969 0.0851536,-0.0763308 0.124728,-0.0840316 0.0906812,-0.0176536 0.200429,0.00460237 0.31365,0.034752 0.0868741,-0.0631615 0.190965,-0.0934253 0.297933,-0.110256 -0.0144488,-0.0128425 -0.0457126,-0.0376536 -0.0566024,-0.0509489 -0.0107795,-0.0143701 -0.0223858,-0.0486024 -0.0344764,-0.0270276 0.00435433,0.0440433 -0.0659528,0.0439961 -0.153433,0.0241103 -0.0705,-0.0160158 -0.0662796,-0.052752 -0.149331,-0.00415748 -0.0125709,-0.0883623 0.262189,-0.130307 0.273339,-0.07813 -0.027378,-0.0365 -0.054752,-0.073 -0.082126,-0.1095 -0.00309843,0.0071063 -0.00619685,0.0142126 -0.00929134,0.021315 -0.0416929,-0.0182244 -0.0717756,0.00107087 -0.127563,0.00443701 -0.0572756,0.00345276 -0.142524,-0.00843701 -0.246158,0.0586772 0.0757914,-0.138284 0.169343,-0.104618 0.231445,-0.108362 0.051752,-0.00312205 0.0921497,-0.0201732 0.12976,-0.00514567 -0.0140354,-0.0186732 -0.0243504,-0.0344567 -0.0534134,-0.0540827 -0.0215709,0.0312717 -0.106177,0.0293701 -0.270441,0.0290866 -0.0632205,-0.000102362 -0.0816969,0.0162205 -0.130559,0.0590788 -0.086504,0.074878 -0.156295,0.143209 -0.232492,0.320933 0.00336614,-0.0189213 0.0072126,-0.0372914 0.0115433,-0.055126 -0.0672678,0.0204291 -0.0990512,-0.0950434 -0.0477992,-0.12111 -0.012126,0.0593307 0.00444095,0.0971536 0.0496969,0.113461 0.00915749,-0.0362481 0.0203347,-0.0702166 0.0335315,-0.101906 -0.0461221,-0.018874 -0.0689804,-0.112539 0.0025,-0.123882zm1.06326 2.27865c0.0650512,-0.0674252 0.118177,-0.141665 0.145075,-0.230894 0.0117165,0.00737796 0.023437,0.0147559 0.0351575,0.0221339 -0.0405512,0.0745197 -0.0845158,0.147335 -0.135965,0.216394 0.101949,-0.0813268 0.00941733,0.00350394 -0.00468111,0.0598426 -0.00922442,-0.0103622 -0.0184488,-0.0207244 -0.0276693,-0.0310866 0.00633859,-0.0056378 0.0126811,-0.0112756 0.0190236,-0.0169095 -0.010315,-0.00649607 -0.0206299,-0.0129882 -0.030941,-0.0194803zm-1.19793 -0.206807c-0.0113386,0.00797638 -0.0226772,0.0159488 -0.0340158,0.0239213 -0.0424488,-0.0602559 -0.104602,-0.0918898 -0.179071,-0.106071 0.127213,-0.0164764 0.180917,0.0364803 0.213087,0.0821497zm0.400103 4.46421c0.14052,0.0187205 1.16593,-0.0247284 1.16593,0.0394764 -0.392776,-0.00141732 -0.780642,-0.000377953 -1.16577,0.00202756 -0.384981,-0.0387441 -0.767422,0.00618898 -1.14932,0.0102441 -0.000681103,-0.0875709 1.01349,-0.0509016 1.14916,-0.0517481zm-2.68065 0.402937c0.140209,-0.0101496 1.18401,-0.053689 1.6826,-0.0198543 -0.560477,-0.00337008 -1.12075,0.0208937 -1.67967,0.0613583 -0.000976379,-0.0138347 -0.00195276,-0.0276693 -0.00292914,-0.041504zm-0.0830315 -0.237087c0.0805197,-0.0106732 0.29124,-0.039504 0.520638,0.00452362 -0.155469,-0.0118268 -0.360851,0.0161732 -0.515268,0.0366496 -0.0017874,-0.0137244 -0.00357874,-0.0274488 -0.00537008,-0.0411733zm-0.070441 0.118756c-0.0417402,0.0326103 -0.0409055,0.0820552 -0.0257244,0.128563 -0.0131811,0.00428347 -0.0263662,0.00857087 -0.0395512,0.0128583 -0.0151181,-0.0463111 -0.00754725,-0.12013 0.0652756,-0.141421zm-0.0700709 -0.380764c-0.00819686,0.044189 0.0068189,0.0562678 0.0218347,0.0683386 0.00431103,0.00346851 0.00862993,0.00693701 0.0128858,0.0109528 -0.0528859,0.0075315 -0.0877835,-0.0209528 -0.0755709,-0.0867796 0.0136181,0.00249606 0.0272362,0.00499213 0.0408504,0.00748819zm5.60562 0.540717c0.000641733,0.00709843 0.00128347,0.0142008 0.00192914,0.0213032 -0.596276,0.0542048 -0.00444095,0.281441 0.0686221,-0.0430315 0.0135079,0.00303937 0.0960867,0.00320079 0.109598,0.00624016 -0.0448189,0.0487677 -0.117772,0.0916142 -0.155445,0.171933 -0.0251103,0.0535355 -0.104362,0.0452953 -0.148709,0.0515 -0.114315,0.016 -0.231477,-0.0607087 -0.254917,-0.220311 0.0107677,-0.00256299 0.0215354,-0.00512599 0.0323071,-0.00768898 -1.55587,0.0247953 -3.11173,0.0495906 -4.6676,0.0743859 0.0128347,0.0509843 -0.0787875,0.314512 -0.10228,0.298693 -0.0171457,0.0593701 -0.27298,0.0762087 -0.319492,0.0548898 -0.0621615,-0.0284961 -0.0645158,-0.121386 -0.0563071,-0.216752 -0.0112284,-0.0013189 -0.0224567,-0.0026378 -0.033689,-0.0039567 0.000972442,-0.00700394 -0.0184882,-0.0140079 -0.0175158,-0.0210118 0.0195433,-0.140721 0.0197126,-0.103772 -0.12961,-0.101362 -0.0249213,-0.108697 -0.0162362,-0.191599 0.0380551,-0.271067 0.0425394,-0.0622678 0.109197,-0.11311 0.193378,-0.15563 -0.0528504,-0.0625867 -0.105701,-0.125173 -0.158551,-0.187756 0.0105827,-0.00895276 0.0211614,-0.0179055 0.0317402,-0.0268583 0.058941,0.0697953 0.117882,0.139595 0.176823,0.209394 1.80607,-0.00374803 3.61214,-0.00749607 5.41822,-0.0112441 0.04813,-0.0538583 0.0962599,-0.107713 0.144394,-0.161567 -0.0749213,-0.0770591 -0.162114,-0.190929 -0.237036,-0.267984 0.14028,0.0954371 0.226071,0.197134 0.293788,0.266748 -0.0608544,0.0680867 -0.121705,0.136177 -0.182555,0.204268 -0.00649213,1.1811e-005 -0.0129803,2.36221e-005 -0.0194685,3.93701e-005 0.00566536,0.0644095 0.0569607,0.0593977 0.114984,0.0806024 -0.00543307,-0.0227047 -0.00789764,-0.040878 -0.00561418,-0.0501181 0.156929,0.306882 0.0702481,0.323461 -0.135051,0.306343zm-0.111142 -0.0100945c-0.068693,-0.00605119 -0.145287,-0.0113976 -0.226984,-0.0100945 0.0148268,0.0610945 0.170732,0.0152047 0.226984,0.0100945zm-0.610355 -2.22783c0.0058189,0.0291024 0.0116378,0.0582048 0.0174606,0.0873111 0.0457756,-0.0402874 0.0565118,-0.0298465 0.102673,-0.0348937 -0.0584449,0.0277323 -0.103614,0.0643111 -0.129362,0.113835 -0.0129882,-0.0649567 0.0114567,-0.0960788 0.00922835,-0.166252zm0.289918 0.132c-0.00949607,-0.0205276 -0.0228504,-0.041504 -0.0589489,-0.0406142 0.0478307,-0.00814174 0.0470355,-0.00807481 0.0729725,0.0262362 0.201807,-0.205866 0.405862,-0.377528 0.604426,-0.513961 0.0644489,0.0644489 0.14526,0.153441 0.209709,0.21789 -0.0149764,0.0125315 -0.0342953,0.0212402 -0.0447008,0.0376496 -0.024437,0.0385512 -0.0557953,0.0602914 -0.0928229,0.083441 -0.0853859,0.0533898 -0.159512,0.15087 -0.286831,0.24476 -0.0518662,0.0382481 -0.0836654,0.099067 -0.128559,0.145374 0.477016,0.312689 0.298524,0.674323 0.0607874,1.08111 -0.00393307,0.00311811 -0.00786615,0.00623622 -0.0117992,0.00935827 -0.0222795,0.0118425 -0.0523583,0.0135591 -0.0702678,0.0332323 -0.0363307,0.0399134 -0.0802205,0.0548701 -0.131228,0.0446536 -0.085563,-0.0171378 -0.17698,0.0375866 -0.275685,0.0433347 -0.162473,0.0397835 -0.328225,0.039815 -0.500205,-0.0116772 -0.145118,-0.0071063 -0.22898,-0.0699371 -0.435929,-0.028811 -0.229559,0.0456181 -0.421918,-0.0261181 -0.659957,-0.119591 -0.11741,-0.0461063 -0.138654,-0.0833426 -0.146465,0.0216929 -0.023,0.173799 -0.0597559,0.274028 -0.107476,0.315567 -0.0510788,0.0444646 -0.109823,0.028811 -0.174394,-0.0326142 -0.122331,0.0798819 -0.245575,0.0707048 -0.370091,-0.0181929 -0.101374,0.0277756 -0.231992,0.0493386 -0.297599,0.00164173 -0.116099,-0.0175709 -0.248162,-0.0544134 -0.397977,-0.112705 -0.029689,-0.00494882 -0.0725158,-0.0399843 -0.0890709,-0.0148465 -0.0766103,0.116315 -0.196847,0.0962678 -0.360725,-0.0601181 -0.0339213,-0.0323701 -0.0904292,-0.00848426 -0.125291,-0.0215866 -0.157496,-0.0376299 -0.283677,-0.14402 -0.41528,-0.186453 -0.145437,-0.0172913 -0.23361,-0.113618 -0.338055,-0.100988 0.00564567,-0.0126417 0.0971064,-0.0375433 0.102748,-0.0501811 0.0900552,0.0694095 0.180118,0.106429 0.270166,0.121295 0.142347,0.0235 0.263232,0.118189 0.394851,0.177284 0.0356024,0.00593307 0.123004,-0.00440158 0.147709,0.0218898 0.0112165,0.011937 0.0219646,0.0229685 0.0322874,0.0331221 0.017063,0.0167795 0.211484,-0.0314134 0.171689,-0.00833859 -0.13363,0.0774882 0.0412638,0.113504 0.135532,0.0386181 0.0130669,-0.0103819 0.0692953,0.005063 0.0865434,0.0107835 0.0230551,0.00899213 0.0443111,0.0262914 0.0678741,0.0254252 0.160599,-0.00591733 0.236764,0.0599646 0.323181,0.085626 0.118055,0.0178662 0.239784,-0.0220276 0.327957,-0.0416457 0.083063,0.0615237 0.164059,0.14287 0.220461,0.0982363 0.0243819,-0.0192953 0.0581575,-0.0325118 0.103496,-0.0425945 0.00484252,-0.00344488 0.00968505,-0.00688977 0.0145276,-0.0103307 0.156358,0.0176142 0.106642,0.0339016 0.0513111,0.0462363 -0.0390591,0.00870473 0.0636496,0.0326654 0.0908032,0.00902756 0.027874,-0.0242638 0.0517678,-0.0758465 0.0709882,-0.159528 -0.0145827,0.00771654 -0.0353071,0.0166063 -0.0843032,0.0531142 0.0307205,-0.0386851 0.061441,-0.0773701 0.0921615,-0.116055 0.00136221,0.00108268 0.00272835,0.00216929 0.00409449,0.00325591 0.0036811,-0.0210512 0.00714174,-0.043626 0.0103701,-0.0677874 -0.003,-0.0275118 -0.048563,-0.0697678 -0.0779804,-0.0746654 0.00227559,-0.0136732 0.0591693,-0.041 0.0614489,-0.0546693 0.0018189,0.00030315 0.0036378,0.0006063 0.0054567,0.000909449 -0.0136299,-0.226886 -0.010126,-0.489961 0.125583,-0.660752 0.00987402,0.00970867 0.109039,0.0768229 0.118913,0.0865355 -0.112142,0.0403229 -0.167039,0.14524 -0.188181,0.251339 0.024811,-0.00683859 0.0496221,-0.0136772 0.0744331,-0.0205158 -0.107721,0.119689 -0.0673937,0.198595 -0.0567717,0.363166 0.274654,0.0680237 0.521949,0.188354 0.801564,0.14387 0.224937,-0.0727638 0.285051,0.0277756 0.426796,0.0534134 0.000405512,7.87402e-005 0.000811024,0.000161417 0.00122047,0.000244095 0.0989253,0.0229606 0.213988,0.0485394 0.30389,0.0164882 0.0652914,-0.0232795 0.117244,-0.0170158 0.181351,-0.00514961 0.0877127,-0.0136181 0.174004,-0.0784095 0.261496,-0.0577205 0.0478662,0.0113189 0.0876693,-0.0101378 0.126284,-0.0365591 0.021748,-0.014878 0.050437,-0.0154016 0.0756418,-0.0232284 0.172854,-0.32854 0.324024,-0.646654 -0.0591693,-0.994686 -0.00797638,0.235043 0.0355591,0.158162 -0.14085,0.282689 -0.00141732,0.00318898 -0.00283465,0.00637796 -0.00425197,0.00956694 0.0039252,-0.00275984 0.0078504,-0.00551969 0.0117756,-0.00827953 0.0388504,0.0550394 0.216807,0.210839 0.170543,0.280256 -0.0693268,0.00900001 -0.165996,-0.0776851 -0.257221,-0.145347 -0.072189,0.0590591 -0.144378,0.118122 -0.216563,0.177185 -0.0932284,-0.130532 0.0691615,-0.226087 0.0677245,-0.226205 0.00717323,-0.0871457 -0.218252,0.321701 -0.243406,0.355288 -0.0458977,-0.0204016 -0.196004,-0.165441 -0.241898,-0.185839 0.00539764,-0.0122126 0.197028,0.0726182 0.212165,0.0793465 0.090689,-0.120524 0.171732,-0.218228 0.265744,-0.328229 0.0379213,-0.0443701 -0.0576575,0.00130315 -0.0430315,-0.0792638 0.0167126,-0.0665827 0.0882599,-0.0446733 0.151791,-0.0498544 0.0605591,-0.0681142 0.121807,-0.134473 0.183685,-0.199217 0.191028,-0.19989 0.38813,-0.384583 0.589508,-0.558552 -0.0445433,-0.0445433 -0.0890827,-0.0890827 -0.133622,-0.133622 -0.41726,0.379681 -0.830127,0.750256 -1.19497,1.25037 -0.0111772,-0.0081378 -0.0223543,-0.0162756 -0.0335276,-0.0244095 0.138882,-0.205173 0.283374,-0.401835 0.430488,-0.560949 0.00980316,-0.0106063 0.0277402,-0.0172126 0.0294567,-0.031315 0.0061063,-0.0501103 0.0328701,-0.0715197 0.0708504,-0.0779528 0.0388819,-0.00658268 0.0537166,-0.0572244 0.0806457,-0.0849213zm-2.58137 -2.15688c0.0042126,-0.00084252 0.0933741,0.00442126 0.0976694,0.00425985 0.0115827,-0.000437008 -0.0488662,-0.054 -0.0268858,-0.0388229"/>
 </g>
</svg>
